<mxfile host="app.diagrams.net" agent="Mozilla/5.0 (Windows NT 10.0; Win64; x64) AppleWebKit/537.36 (KHTML, like Gecko) Chrome/135.0.0.0 Safari/537.36" version="26.2.10">
  <diagram name="Page-1" id="b5b7bab2-c9e2-2cf4-8b2a-24fd1a2a6d21">
    <mxGraphModel dx="2200" dy="2418" grid="1" gridSize="10" guides="1" tooltips="1" connect="1" arrows="1" fold="1" page="1" pageScale="1" pageWidth="827" pageHeight="1169" background="none" math="0" shadow="0">
      <root>
        <mxCell id="0" />
        <mxCell id="1" parent="0" />
        <mxCell id="dJ0ISXZauVjFbvS7ho5C-32" value="" style="shape=folder;fontStyle=1;spacingTop=0;tabWidth=148;tabHeight=30;tabPosition=left;html=1;rounded=0;shadow=0;comic=0;labelBackgroundColor=none;strokeColor=#000000;strokeWidth=1;fillColor=#ffffff;fontFamily=Verdana;fontSize=10;fontColor=#000000;align=left;verticalAlign=middle;" vertex="1" parent="1">
          <mxGeometry x="206" y="485.25" width="914" height="294.75" as="geometry" />
        </mxCell>
        <mxCell id="6e0c8c40b5770093-72" value="" style="shape=folder;fontStyle=1;spacingTop=10;tabWidth=194;tabHeight=22;tabPosition=left;html=1;rounded=0;shadow=0;comic=0;labelBackgroundColor=none;strokeWidth=1;fillColor=none;fontFamily=Verdana;fontSize=10;align=center;" parent="1" vertex="1">
          <mxGeometry x="4610" y="460" width="1001" height="940" as="geometry" />
        </mxCell>
        <mxCell id="6e0c8c40b5770093-60" style="rounded=0;html=1;dashed=1;labelBackgroundColor=none;startFill=0;endArrow=open;endFill=0;endSize=10;fontFamily=Verdana;fontSize=10;exitX=0.227;exitY=1.013;exitDx=0;exitDy=0;exitPerimeter=0;entryX=0;entryY=0;entryDx=208;entryDy=30;entryPerimeter=0;" parent="1" source="dJ0ISXZauVjFbvS7ho5C-32" target="dJ0ISXZauVjFbvS7ho5C-5" edge="1">
          <mxGeometry relative="1" as="geometry">
            <mxPoint x="583.6187769784171" y="840" as="sourcePoint" />
            <mxPoint x="509.99800000000005" y="924.925" as="targetPoint" />
          </mxGeometry>
        </mxCell>
        <mxCell id="6e0c8c40b5770093-73" value="&amp;lt;&amp;lt;model&amp;gt;&amp;gt;" style="text;html=1;align=left;verticalAlign=top;spacingTop=-4;fontSize=10;fontFamily=Verdana" parent="1" vertex="1">
          <mxGeometry x="327.5" y="114.5" width="130" height="20" as="geometry" />
        </mxCell>
        <mxCell id="dJ0ISXZauVjFbvS7ho5C-5" value="&lt;ul&gt;&lt;li&gt;&lt;span style=&quot;background-color: transparent; color: light-dark(rgb(0, 0, 0), rgb(237, 237, 237)); font-weight: normal;&quot;&gt;&lt;font style=&quot;font-size: 15px;&quot;&gt;ManagerController&lt;/font&gt;&lt;/span&gt;&lt;/li&gt;&lt;li&gt;&lt;font style=&quot;font-size: 15px; font-weight: normal;&quot;&gt;AuthController&lt;/font&gt;&lt;/li&gt;&lt;li&gt;&lt;font style=&quot;font-size: 15px; font-weight: normal;&quot;&gt;BusController&lt;/font&gt;&lt;/li&gt;&lt;li&gt;&lt;font style=&quot;font-size: 15px; font-weight: normal;&quot;&gt;PaymentController&lt;/font&gt;&lt;/li&gt;&lt;li&gt;&lt;font style=&quot;font-size: 15px; font-weight: normal;&quot;&gt;TicketController&lt;/font&gt;&lt;/li&gt;&lt;/ul&gt;&lt;div&gt;&lt;br&gt;&lt;/div&gt;" style="shape=folder;fontStyle=1;spacingTop=0;tabWidth=148;tabHeight=30;tabPosition=left;html=1;rounded=0;shadow=0;comic=0;labelBackgroundColor=none;strokeColor=#000000;strokeWidth=1;fillColor=#ffffff;fontFamily=Verdana;fontSize=10;fontColor=#000000;align=left;verticalAlign=middle;" vertex="1" parent="1">
          <mxGeometry x="206" y="800" width="268" height="180" as="geometry" />
        </mxCell>
        <mxCell id="dJ0ISXZauVjFbvS7ho5C-7" value="&lt;font style=&quot;font-size: 14px;&quot;&gt;Controller&lt;/font&gt;" style="text;strokeColor=none;fillColor=none;html=1;fontSize=24;fontStyle=1;verticalAlign=middle;align=center;" vertex="1" parent="1">
          <mxGeometry x="217" y="790" width="118" height="40" as="geometry" />
        </mxCell>
        <mxCell id="dJ0ISXZauVjFbvS7ho5C-13" value="&lt;ul&gt;&lt;li&gt;&lt;span style=&quot;font-size: 15px; font-weight: 400;&quot;&gt;BusDB&lt;/span&gt;&lt;/li&gt;&lt;li&gt;&lt;span style=&quot;font-size: 15px; font-weight: 400;&quot;&gt;PaymentDB&lt;/span&gt;&lt;/li&gt;&lt;li&gt;&lt;span style=&quot;font-size: 15px; font-weight: 400;&quot;&gt;TicketDB&lt;/span&gt;&lt;/li&gt;&lt;li&gt;&lt;span style=&quot;font-size: 15px; font-weight: 400;&quot;&gt;UserDB&lt;/span&gt;&lt;/li&gt;&lt;/ul&gt;" style="shape=folder;fontStyle=1;spacingTop=0;tabWidth=148;tabHeight=30;tabPosition=left;html=1;rounded=0;shadow=0;comic=0;labelBackgroundColor=none;strokeColor=#000000;strokeWidth=1;fillColor=#ffffff;fontFamily=Verdana;fontSize=10;fontColor=#000000;align=left;verticalAlign=middle;" vertex="1" parent="1">
          <mxGeometry x="212.42" y="1179" width="268" height="150" as="geometry" />
        </mxCell>
        <mxCell id="dJ0ISXZauVjFbvS7ho5C-15" value="&lt;font style=&quot;font-size: 14px;&quot;&gt;Database&lt;/font&gt;" style="text;strokeColor=none;fillColor=none;html=1;fontSize=24;fontStyle=1;verticalAlign=middle;align=center;" vertex="1" parent="1">
          <mxGeometry x="223.42" y="1169" width="118" height="40" as="geometry" />
        </mxCell>
        <mxCell id="dJ0ISXZauVjFbvS7ho5C-16" value="&lt;ul&gt;&lt;li&gt;&lt;span style=&quot;font-size: 15px; font-weight: 400;&quot;&gt;Bus&lt;/span&gt;&lt;/li&gt;&lt;li&gt;&lt;span style=&quot;font-size: 15px; font-weight: 400;&quot;&gt;Customer&lt;/span&gt;&lt;/li&gt;&lt;li&gt;&lt;span style=&quot;font-size: 15px; font-weight: 400;&quot;&gt;Manager&lt;/span&gt;&lt;/li&gt;&lt;li&gt;&lt;span style=&quot;font-size: 15px; font-weight: 400;&quot;&gt;Person&lt;/span&gt;&lt;/li&gt;&lt;li&gt;&lt;span style=&quot;font-size: 15px; font-weight: 400;&quot;&gt;Payment&lt;/span&gt;&lt;/li&gt;&lt;li&gt;&lt;span style=&quot;font-size: 15px; font-weight: 400;&quot;&gt;Route&lt;/span&gt;&lt;/li&gt;&lt;li&gt;&lt;span style=&quot;font-size: 15px; font-weight: 400;&quot;&gt;Ticket&lt;/span&gt;&lt;/li&gt;&lt;li&gt;&lt;span style=&quot;font-size: 15px; font-weight: 400;&quot;&gt;Trip&lt;/span&gt;&lt;/li&gt;&lt;/ul&gt;" style="shape=folder;fontStyle=1;spacingTop=0;tabWidth=148;tabHeight=30;tabPosition=left;html=1;rounded=0;shadow=0;comic=0;labelBackgroundColor=none;strokeColor=#000000;strokeWidth=1;fillColor=#ffffff;fontFamily=Verdana;fontSize=10;fontColor=#000000;align=left;verticalAlign=middle;" vertex="1" parent="1">
          <mxGeometry x="827" y="970" width="268" height="220" as="geometry" />
        </mxCell>
        <mxCell id="dJ0ISXZauVjFbvS7ho5C-18" value="&lt;span style=&quot;font-size: 14px;&quot;&gt;Model&lt;/span&gt;" style="text;strokeColor=none;fillColor=none;html=1;fontSize=24;fontStyle=1;verticalAlign=middle;align=center;" vertex="1" parent="1">
          <mxGeometry x="840" y="960" width="118" height="40" as="geometry" />
        </mxCell>
        <mxCell id="dJ0ISXZauVjFbvS7ho5C-22" value="&lt;ul&gt;&lt;li&gt;&lt;span style=&quot;font-size: 15px; font-weight: 400;&quot;&gt;LoginView&lt;/span&gt;&lt;/li&gt;&lt;li&gt;&lt;span style=&quot;font-size: 15px; font-weight: 400;&quot;&gt;RegisterView&lt;/span&gt;&lt;/li&gt;&lt;li&gt;&lt;span style=&quot;font-size: 15px; font-weight: 400;&quot;&gt;MainView&lt;/span&gt;&lt;/li&gt;&lt;/ul&gt;" style="shape=folder;fontStyle=1;spacingTop=0;tabWidth=148;tabHeight=30;tabPosition=left;html=1;rounded=0;shadow=0;comic=0;labelBackgroundColor=none;strokeColor=#000000;strokeWidth=1;fillColor=#ffffff;fontFamily=Verdana;fontSize=10;fontColor=#000000;align=left;verticalAlign=middle;" vertex="1" parent="1">
          <mxGeometry x="230" y="620" width="268" height="140" as="geometry" />
        </mxCell>
        <mxCell id="dJ0ISXZauVjFbvS7ho5C-24" value="&lt;span style=&quot;font-size: 14px;&quot;&gt;View.Overall&lt;/span&gt;" style="text;strokeColor=none;fillColor=none;html=1;fontSize=24;fontStyle=1;verticalAlign=middle;align=center;" vertex="1" parent="1">
          <mxGeometry x="244" y="610" width="118" height="40" as="geometry" />
        </mxCell>
        <mxCell id="dJ0ISXZauVjFbvS7ho5C-25" value="&lt;ul&gt;&lt;li&gt;&lt;span style=&quot;text-align: center; font-weight: normal;&quot;&gt;&lt;font style=&quot;font-size: 15px;&quot;&gt;BookingSeatView&lt;/font&gt;&lt;/span&gt;&lt;/li&gt;&lt;li&gt;&lt;span style=&quot;font-weight: normal;&quot;&gt;&lt;font style=&quot;font-size: 15px;&quot;&gt;CustomerDashBoardView&lt;/font&gt;&lt;/span&gt;&lt;/li&gt;&lt;li&gt;&lt;span style=&quot;font-weight: normal;&quot;&gt;&lt;font style=&quot;font-size: 15px;&quot;&gt;PaymentConfirmView&lt;/font&gt;&lt;/span&gt;&lt;/li&gt;&lt;li&gt;&lt;span style=&quot;font-weight: normal;&quot;&gt;&lt;font style=&quot;font-size: 15px;&quot;&gt;PaymentView&lt;/font&gt;&lt;/span&gt;&lt;/li&gt;&lt;/ul&gt;" style="shape=folder;fontStyle=1;spacingTop=0;tabWidth=200;tabHeight=35;tabPosition=left;html=1;rounded=0;shadow=0;comic=0;labelBackgroundColor=none;strokeColor=#000000;strokeWidth=1;fillColor=#ffffff;fontFamily=Verdana;fontSize=10;fontColor=#000000;align=left;verticalAlign=middle;" vertex="1" parent="1">
          <mxGeometry x="530" y="569.75" width="268" height="190.25" as="geometry" />
        </mxCell>
        <mxCell id="dJ0ISXZauVjFbvS7ho5C-27" value="&lt;font style=&quot;font-size: 14px;&quot;&gt;View.CustomerView&lt;/font&gt;" style="text;strokeColor=none;fillColor=none;html=1;fontSize=24;fontStyle=1;verticalAlign=middle;align=center;" vertex="1" parent="1">
          <mxGeometry x="567.5" y="565" width="118" height="40" as="geometry" />
        </mxCell>
        <mxCell id="dJ0ISXZauVjFbvS7ho5C-28" value="&lt;ul&gt;&lt;li&gt;&lt;span style=&quot;font-size: 15px; font-weight: 400;&quot;&gt;ManagerDashBoardView&lt;/span&gt;&lt;/li&gt;&lt;li&gt;&lt;span style=&quot;font-size: 15px; font-weight: 400;&quot;&gt;ManageTripView&lt;/span&gt;&lt;/li&gt;&lt;li&gt;&lt;span style=&quot;font-size: 15px; font-weight: 400;&quot;&gt;ManageBusView&lt;/span&gt;&lt;/li&gt;&lt;li&gt;&lt;span style=&quot;font-size: 15px; font-weight: 400;&quot;&gt;RevenueReportView&lt;/span&gt;&lt;/li&gt;&lt;li&gt;&lt;span style=&quot;font-size: 15px; font-weight: 400;&quot;&gt;ViewTicketListView&lt;/span&gt;&lt;/li&gt;&lt;li&gt;&lt;span style=&quot;font-size: 15px; font-weight: 400;&quot;&gt;UserAccountView&lt;/span&gt;&lt;/li&gt;&lt;li&gt;&lt;span style=&quot;font-size: 15px; font-weight: 400;&quot;&gt;CreateManageView&lt;/span&gt;&lt;/li&gt;&lt;/ul&gt;" style="shape=folder;fontStyle=1;spacingTop=0;tabWidth=214;tabHeight=30;tabPosition=left;html=1;rounded=0;shadow=0;comic=0;labelBackgroundColor=none;strokeColor=#000000;strokeWidth=1;fillColor=#ffffff;fontFamily=Verdana;fontSize=10;fontColor=#000000;align=left;verticalAlign=middle;" vertex="1" parent="1">
          <mxGeometry x="827" y="544.75" width="268" height="215.25" as="geometry" />
        </mxCell>
        <mxCell id="dJ0ISXZauVjFbvS7ho5C-30" value="&lt;span style=&quot;font-size: 14px;&quot;&gt;View.ManagerView&lt;/span&gt;" style="text;strokeColor=none;fillColor=none;html=1;fontSize=24;fontStyle=1;verticalAlign=middle;align=center;" vertex="1" parent="1">
          <mxGeometry x="874" y="540" width="118" height="34.75" as="geometry" />
        </mxCell>
        <mxCell id="dJ0ISXZauVjFbvS7ho5C-33" value="" style="triangle;whiteSpace=wrap;html=1;rounded=0;shadow=0;comic=0;labelBackgroundColor=none;strokeColor=#000000;strokeWidth=1;fillColor=#ffffff;fontFamily=Verdana;fontSize=10;fontColor=#000000;align=center;rotation=-90;" vertex="1" parent="1">
          <mxGeometry x="314" y="490.5" width="16.25" height="20" as="geometry" />
        </mxCell>
        <mxCell id="dJ0ISXZauVjFbvS7ho5C-34" value="&lt;span style=&quot;font-size: 14px;&quot;&gt;View&lt;/span&gt;" style="text;strokeColor=none;fillColor=none;html=1;fontSize=24;fontStyle=1;verticalAlign=middle;align=center;" vertex="1" parent="1">
          <mxGeometry x="206" y="475.25" width="118" height="40" as="geometry" />
        </mxCell>
        <mxCell id="dJ0ISXZauVjFbvS7ho5C-38" style="rounded=0;html=1;dashed=1;labelBackgroundColor=none;startFill=0;endArrow=open;endFill=0;endSize=10;fontFamily=Verdana;fontSize=10;exitX=0;exitY=0;exitDx=268;exitDy=105;exitPerimeter=0;entryX=0;entryY=0;entryDx=208;entryDy=30;entryPerimeter=0;" edge="1" parent="1" source="dJ0ISXZauVjFbvS7ho5C-5" target="dJ0ISXZauVjFbvS7ho5C-16">
          <mxGeometry relative="1" as="geometry">
            <mxPoint x="412" y="984" as="sourcePoint" />
            <mxPoint x="413" y="1030" as="targetPoint" />
            <Array as="points">
              <mxPoint x="1035" y="905" />
            </Array>
          </mxGeometry>
        </mxCell>
        <mxCell id="dJ0ISXZauVjFbvS7ho5C-39" style="rounded=0;html=1;dashed=1;labelBackgroundColor=none;startFill=0;endArrow=open;endFill=0;endSize=10;fontFamily=Verdana;fontSize=10;entryX=0;entryY=0;entryDx=268;entryDy=90;entryPerimeter=0;" edge="1" parent="1" target="dJ0ISXZauVjFbvS7ho5C-13">
          <mxGeometry relative="1" as="geometry">
            <mxPoint x="1040" y="1190" as="sourcePoint" />
            <mxPoint x="419.42" y="1245" as="targetPoint" />
            <Array as="points">
              <mxPoint x="1040.42" y="1269" />
            </Array>
          </mxGeometry>
        </mxCell>
        <mxCell id="dJ0ISXZauVjFbvS7ho5C-155" value="" style="shape=folder;fontStyle=1;spacingTop=0;tabWidth=148;tabHeight=30;tabPosition=left;html=1;rounded=0;shadow=0;comic=0;labelBackgroundColor=none;strokeColor=#000000;strokeWidth=1;fillColor=#ffffff;fontFamily=Verdana;fontSize=10;fontColor=#000000;align=left;verticalAlign=middle;" vertex="1" parent="1">
          <mxGeometry x="1110" y="2000" width="580" height="270" as="geometry" />
        </mxCell>
        <mxCell id="dJ0ISXZauVjFbvS7ho5C-156" value="&lt;span style=&quot;font-size: 14px;&quot;&gt;Model&lt;/span&gt;" style="text;strokeColor=none;fillColor=none;html=1;fontSize=24;fontStyle=1;verticalAlign=middle;align=center;" vertex="1" parent="1">
          <mxGeometry x="1124" y="1990" width="118" height="40" as="geometry" />
        </mxCell>
        <mxCell id="dJ0ISXZauVjFbvS7ho5C-157" value="Bus" style="swimlane;fontStyle=1;align=center;verticalAlign=top;childLayout=stackLayout;horizontal=1;startSize=26;horizontalStack=0;resizeParent=1;resizeParentMax=0;resizeLast=0;collapsible=1;marginBottom=0;whiteSpace=wrap;html=1;" vertex="1" parent="1">
          <mxGeometry x="1130" y="2104.63" width="160" height="34" as="geometry" />
        </mxCell>
        <mxCell id="dJ0ISXZauVjFbvS7ho5C-158" value="" style="line;strokeWidth=1;fillColor=none;align=left;verticalAlign=middle;spacingTop=-1;spacingLeft=3;spacingRight=3;rotatable=0;labelPosition=right;points=[];portConstraint=eastwest;strokeColor=inherit;" vertex="1" parent="dJ0ISXZauVjFbvS7ho5C-157">
          <mxGeometry y="26" width="160" height="8" as="geometry" />
        </mxCell>
        <mxCell id="dJ0ISXZauVjFbvS7ho5C-159" value="Customer" style="swimlane;fontStyle=1;align=center;verticalAlign=top;childLayout=stackLayout;horizontal=1;startSize=26;horizontalStack=0;resizeParent=1;resizeParentMax=0;resizeLast=0;collapsible=1;marginBottom=0;whiteSpace=wrap;html=1;" vertex="1" parent="1">
          <mxGeometry x="1130" y="2049" width="160" height="34" as="geometry" />
        </mxCell>
        <mxCell id="dJ0ISXZauVjFbvS7ho5C-160" value="" style="line;strokeWidth=1;fillColor=none;align=left;verticalAlign=middle;spacingTop=-1;spacingLeft=3;spacingRight=3;rotatable=0;labelPosition=right;points=[];portConstraint=eastwest;strokeColor=inherit;" vertex="1" parent="dJ0ISXZauVjFbvS7ho5C-159">
          <mxGeometry y="26" width="160" height="8" as="geometry" />
        </mxCell>
        <mxCell id="dJ0ISXZauVjFbvS7ho5C-161" value="Manager" style="swimlane;fontStyle=1;align=center;verticalAlign=top;childLayout=stackLayout;horizontal=1;startSize=26;horizontalStack=0;resizeParent=1;resizeParentMax=0;resizeLast=0;collapsible=1;marginBottom=0;whiteSpace=wrap;html=1;" vertex="1" parent="1">
          <mxGeometry x="1510" y="2049" width="160" height="34" as="geometry" />
        </mxCell>
        <mxCell id="dJ0ISXZauVjFbvS7ho5C-162" value="" style="line;strokeWidth=1;fillColor=none;align=left;verticalAlign=middle;spacingTop=-1;spacingLeft=3;spacingRight=3;rotatable=0;labelPosition=right;points=[];portConstraint=eastwest;strokeColor=inherit;" vertex="1" parent="dJ0ISXZauVjFbvS7ho5C-161">
          <mxGeometry y="26" width="160" height="8" as="geometry" />
        </mxCell>
        <mxCell id="dJ0ISXZauVjFbvS7ho5C-163" value="Person" style="swimlane;fontStyle=1;align=center;verticalAlign=top;childLayout=stackLayout;horizontal=1;startSize=26;horizontalStack=0;resizeParent=1;resizeParentMax=0;resizeLast=0;collapsible=1;marginBottom=0;whiteSpace=wrap;html=1;" vertex="1" parent="1">
          <mxGeometry x="1320" y="2049" width="160" height="34" as="geometry" />
        </mxCell>
        <mxCell id="dJ0ISXZauVjFbvS7ho5C-164" value="" style="line;strokeWidth=1;fillColor=none;align=left;verticalAlign=middle;spacingTop=-1;spacingLeft=3;spacingRight=3;rotatable=0;labelPosition=right;points=[];portConstraint=eastwest;strokeColor=inherit;" vertex="1" parent="dJ0ISXZauVjFbvS7ho5C-163">
          <mxGeometry y="26" width="160" height="8" as="geometry" />
        </mxCell>
        <mxCell id="dJ0ISXZauVjFbvS7ho5C-165" value="Payment" style="swimlane;fontStyle=1;align=center;verticalAlign=top;childLayout=stackLayout;horizontal=1;startSize=26;horizontalStack=0;resizeParent=1;resizeParentMax=0;resizeLast=0;collapsible=1;marginBottom=0;whiteSpace=wrap;html=1;" vertex="1" parent="1">
          <mxGeometry x="1510" y="2214.75" width="160" height="34" as="geometry" />
        </mxCell>
        <mxCell id="dJ0ISXZauVjFbvS7ho5C-166" value="" style="line;strokeWidth=1;fillColor=none;align=left;verticalAlign=middle;spacingTop=-1;spacingLeft=3;spacingRight=3;rotatable=0;labelPosition=right;points=[];portConstraint=eastwest;strokeColor=inherit;" vertex="1" parent="dJ0ISXZauVjFbvS7ho5C-165">
          <mxGeometry y="26" width="160" height="8" as="geometry" />
        </mxCell>
        <mxCell id="dJ0ISXZauVjFbvS7ho5C-167" value="Route" style="swimlane;fontStyle=1;align=center;verticalAlign=top;childLayout=stackLayout;horizontal=1;startSize=26;horizontalStack=0;resizeParent=1;resizeParentMax=0;resizeLast=0;collapsible=1;marginBottom=0;whiteSpace=wrap;html=1;" vertex="1" parent="1">
          <mxGeometry x="1130" y="2160.75" width="160" height="34" as="geometry" />
        </mxCell>
        <mxCell id="dJ0ISXZauVjFbvS7ho5C-168" value="" style="line;strokeWidth=1;fillColor=none;align=left;verticalAlign=middle;spacingTop=-1;spacingLeft=3;spacingRight=3;rotatable=0;labelPosition=right;points=[];portConstraint=eastwest;strokeColor=inherit;" vertex="1" parent="dJ0ISXZauVjFbvS7ho5C-167">
          <mxGeometry y="26" width="160" height="8" as="geometry" />
        </mxCell>
        <mxCell id="dJ0ISXZauVjFbvS7ho5C-169" value="Ticket" style="swimlane;fontStyle=1;align=center;verticalAlign=top;childLayout=stackLayout;horizontal=1;startSize=26;horizontalStack=0;resizeParent=1;resizeParentMax=0;resizeLast=0;collapsible=1;marginBottom=0;whiteSpace=wrap;html=1;" vertex="1" parent="1">
          <mxGeometry x="1320" y="2214.75" width="160" height="34" as="geometry" />
        </mxCell>
        <mxCell id="dJ0ISXZauVjFbvS7ho5C-170" value="" style="line;strokeWidth=1;fillColor=none;align=left;verticalAlign=middle;spacingTop=-1;spacingLeft=3;spacingRight=3;rotatable=0;labelPosition=right;points=[];portConstraint=eastwest;strokeColor=inherit;" vertex="1" parent="dJ0ISXZauVjFbvS7ho5C-169">
          <mxGeometry y="26" width="160" height="8" as="geometry" />
        </mxCell>
        <mxCell id="dJ0ISXZauVjFbvS7ho5C-171" value="Trip" style="swimlane;fontStyle=1;align=center;verticalAlign=top;childLayout=stackLayout;horizontal=1;startSize=26;horizontalStack=0;resizeParent=1;resizeParentMax=0;resizeLast=0;collapsible=1;marginBottom=0;whiteSpace=wrap;html=1;" vertex="1" parent="1">
          <mxGeometry x="1130" y="2214.75" width="160" height="34" as="geometry" />
        </mxCell>
        <mxCell id="dJ0ISXZauVjFbvS7ho5C-172" value="" style="line;strokeWidth=1;fillColor=none;align=left;verticalAlign=middle;spacingTop=-1;spacingLeft=3;spacingRight=3;rotatable=0;labelPosition=right;points=[];portConstraint=eastwest;strokeColor=inherit;" vertex="1" parent="dJ0ISXZauVjFbvS7ho5C-171">
          <mxGeometry y="26" width="160" height="8" as="geometry" />
        </mxCell>
        <mxCell id="dJ0ISXZauVjFbvS7ho5C-175" value="" style="shape=folder;fontStyle=1;spacingTop=0;tabWidth=148;tabHeight=30;tabPosition=left;html=1;rounded=0;shadow=0;comic=0;labelBackgroundColor=none;strokeColor=#000000;strokeWidth=1;fillColor=#ffffff;fontFamily=Verdana;fontSize=10;fontColor=#000000;align=left;verticalAlign=middle;" vertex="1" parent="1">
          <mxGeometry x="2140" y="1604.75" width="560" height="157.63" as="geometry" />
        </mxCell>
        <mxCell id="dJ0ISXZauVjFbvS7ho5C-176" value="&lt;span style=&quot;font-size: 14px;&quot;&gt;Database&lt;/span&gt;" style="text;strokeColor=none;fillColor=none;html=1;fontSize=24;fontStyle=1;verticalAlign=middle;align=center;" vertex="1" parent="1">
          <mxGeometry x="2154" y="1594.75" width="118" height="40" as="geometry" />
        </mxCell>
        <mxCell id="dJ0ISXZauVjFbvS7ho5C-177" value="BusDB" style="swimlane;fontStyle=1;align=center;verticalAlign=top;childLayout=stackLayout;horizontal=1;startSize=26;horizontalStack=0;resizeParent=1;resizeParentMax=0;resizeLast=0;collapsible=1;marginBottom=0;whiteSpace=wrap;html=1;" vertex="1" parent="1">
          <mxGeometry x="2160" y="1650.5" width="160" height="34" as="geometry" />
        </mxCell>
        <mxCell id="dJ0ISXZauVjFbvS7ho5C-178" value="" style="line;strokeWidth=1;fillColor=none;align=left;verticalAlign=middle;spacingTop=-1;spacingLeft=3;spacingRight=3;rotatable=0;labelPosition=right;points=[];portConstraint=eastwest;strokeColor=inherit;" vertex="1" parent="dJ0ISXZauVjFbvS7ho5C-177">
          <mxGeometry y="26" width="160" height="8" as="geometry" />
        </mxCell>
        <mxCell id="dJ0ISXZauVjFbvS7ho5C-179" value="PaymentDB" style="swimlane;fontStyle=1;align=center;verticalAlign=top;childLayout=stackLayout;horizontal=1;startSize=26;horizontalStack=0;resizeParent=1;resizeParentMax=0;resizeLast=0;collapsible=1;marginBottom=0;whiteSpace=wrap;html=1;" vertex="1" parent="1">
          <mxGeometry x="2340" y="1650.5" width="160" height="34" as="geometry" />
        </mxCell>
        <mxCell id="dJ0ISXZauVjFbvS7ho5C-180" value="" style="line;strokeWidth=1;fillColor=none;align=left;verticalAlign=middle;spacingTop=-1;spacingLeft=3;spacingRight=3;rotatable=0;labelPosition=right;points=[];portConstraint=eastwest;strokeColor=inherit;" vertex="1" parent="dJ0ISXZauVjFbvS7ho5C-179">
          <mxGeometry y="26" width="160" height="8" as="geometry" />
        </mxCell>
        <mxCell id="dJ0ISXZauVjFbvS7ho5C-181" value="TicketDB" style="swimlane;fontStyle=1;align=center;verticalAlign=top;childLayout=stackLayout;horizontal=1;startSize=26;horizontalStack=0;resizeParent=1;resizeParentMax=0;resizeLast=0;collapsible=1;marginBottom=0;whiteSpace=wrap;html=1;" vertex="1" parent="1">
          <mxGeometry x="2520" y="1650.5" width="160" height="34" as="geometry" />
        </mxCell>
        <mxCell id="dJ0ISXZauVjFbvS7ho5C-182" value="" style="line;strokeWidth=1;fillColor=none;align=left;verticalAlign=middle;spacingTop=-1;spacingLeft=3;spacingRight=3;rotatable=0;labelPosition=right;points=[];portConstraint=eastwest;strokeColor=inherit;" vertex="1" parent="dJ0ISXZauVjFbvS7ho5C-181">
          <mxGeometry y="26" width="160" height="8" as="geometry" />
        </mxCell>
        <mxCell id="dJ0ISXZauVjFbvS7ho5C-183" value="UserDB" style="swimlane;fontStyle=1;align=center;verticalAlign=top;childLayout=stackLayout;horizontal=1;startSize=26;horizontalStack=0;resizeParent=1;resizeParentMax=0;resizeLast=0;collapsible=1;marginBottom=0;whiteSpace=wrap;html=1;" vertex="1" parent="1">
          <mxGeometry x="2160" y="1704.75" width="160" height="34" as="geometry" />
        </mxCell>
        <mxCell id="dJ0ISXZauVjFbvS7ho5C-184" value="" style="line;strokeWidth=1;fillColor=none;align=left;verticalAlign=middle;spacingTop=-1;spacingLeft=3;spacingRight=3;rotatable=0;labelPosition=right;points=[];portConstraint=eastwest;strokeColor=inherit;" vertex="1" parent="dJ0ISXZauVjFbvS7ho5C-183">
          <mxGeometry y="26" width="160" height="8" as="geometry" />
        </mxCell>
        <mxCell id="dJ0ISXZauVjFbvS7ho5C-205" value="" style="shape=folder;fontStyle=1;spacingTop=0;tabWidth=148;tabHeight=30;tabPosition=left;html=1;rounded=0;shadow=0;comic=0;labelBackgroundColor=none;strokeColor=#000000;strokeWidth=1;fillColor=#ffffff;fontFamily=Verdana;fontSize=10;fontColor=#000000;align=left;verticalAlign=middle;" vertex="1" parent="1">
          <mxGeometry x="212.42000000000007" y="1390" width="520" height="154.75" as="geometry" />
        </mxCell>
        <mxCell id="dJ0ISXZauVjFbvS7ho5C-206" value="&lt;span style=&quot;font-size: 14px;&quot;&gt;View.Overall&lt;/span&gt;" style="text;strokeColor=none;fillColor=none;html=1;fontSize=24;fontStyle=1;verticalAlign=middle;align=center;" vertex="1" parent="1">
          <mxGeometry x="226.42000000000007" y="1380" width="118" height="40" as="geometry" />
        </mxCell>
        <mxCell id="dJ0ISXZauVjFbvS7ho5C-207" value="LoginView" style="swimlane;fontStyle=1;align=center;verticalAlign=top;childLayout=stackLayout;horizontal=1;startSize=26;horizontalStack=0;resizeParent=1;resizeParentMax=0;resizeLast=0;collapsible=1;marginBottom=0;whiteSpace=wrap;html=1;" vertex="1" parent="1">
          <mxGeometry x="226.42000000000007" y="1435.75" width="160" height="34" as="geometry">
            <mxRectangle x="1364" y="541" width="100" height="30" as="alternateBounds" />
          </mxGeometry>
        </mxCell>
        <mxCell id="dJ0ISXZauVjFbvS7ho5C-208" value="" style="line;strokeWidth=1;fillColor=none;align=left;verticalAlign=middle;spacingTop=-1;spacingLeft=3;spacingRight=3;rotatable=0;labelPosition=right;points=[];portConstraint=eastwest;strokeColor=inherit;" vertex="1" parent="dJ0ISXZauVjFbvS7ho5C-207">
          <mxGeometry y="26" width="160" height="8" as="geometry" />
        </mxCell>
        <mxCell id="dJ0ISXZauVjFbvS7ho5C-209" value="MainView" style="swimlane;fontStyle=1;align=center;verticalAlign=top;childLayout=stackLayout;horizontal=1;startSize=26;horizontalStack=0;resizeParent=1;resizeParentMax=0;resizeLast=0;collapsible=1;marginBottom=0;whiteSpace=wrap;html=1;" vertex="1" parent="1">
          <mxGeometry x="546.4200000000001" y="1435.75" width="160" height="34" as="geometry" />
        </mxCell>
        <mxCell id="dJ0ISXZauVjFbvS7ho5C-210" value="" style="line;strokeWidth=1;fillColor=none;align=left;verticalAlign=middle;spacingTop=-1;spacingLeft=3;spacingRight=3;rotatable=0;labelPosition=right;points=[];portConstraint=eastwest;strokeColor=inherit;" vertex="1" parent="dJ0ISXZauVjFbvS7ho5C-209">
          <mxGeometry y="26" width="160" height="8" as="geometry" />
        </mxCell>
        <mxCell id="dJ0ISXZauVjFbvS7ho5C-239" value="" style="shape=folder;fontStyle=1;spacingTop=0;tabWidth=148;tabHeight=30;tabPosition=left;html=1;rounded=0;shadow=0;comic=0;labelBackgroundColor=none;strokeColor=#000000;strokeWidth=1;fillColor=#ffffff;fontFamily=Verdana;fontSize=10;fontColor=#000000;align=left;verticalAlign=middle;" vertex="1" parent="1">
          <mxGeometry x="212.42000000000007" y="1594.75" width="560" height="165.25" as="geometry" />
        </mxCell>
        <mxCell id="dJ0ISXZauVjFbvS7ho5C-240" value="ManagerController" style="swimlane;fontStyle=1;align=center;verticalAlign=top;childLayout=stackLayout;horizontal=1;startSize=26;horizontalStack=0;resizeParent=1;resizeParentMax=0;resizeLast=0;collapsible=1;marginBottom=0;whiteSpace=wrap;html=1;" vertex="1" parent="1">
          <mxGeometry x="412.4200000000001" y="1704.75" width="160" height="34" as="geometry" />
        </mxCell>
        <mxCell id="dJ0ISXZauVjFbvS7ho5C-241" value="" style="line;strokeWidth=1;fillColor=none;align=left;verticalAlign=middle;spacingTop=-1;spacingLeft=3;spacingRight=3;rotatable=0;labelPosition=right;points=[];portConstraint=eastwest;strokeColor=inherit;" vertex="1" parent="dJ0ISXZauVjFbvS7ho5C-240">
          <mxGeometry y="26" width="160" height="8" as="geometry" />
        </mxCell>
        <mxCell id="dJ0ISXZauVjFbvS7ho5C-242" value="AuthController" style="swimlane;fontStyle=1;align=center;verticalAlign=top;childLayout=stackLayout;horizontal=1;startSize=26;horizontalStack=0;resizeParent=1;resizeParentMax=0;resizeLast=0;collapsible=1;marginBottom=0;whiteSpace=wrap;html=1;" vertex="1" parent="1">
          <mxGeometry x="229.42000000000007" y="1643.75" width="160" height="34" as="geometry" />
        </mxCell>
        <mxCell id="dJ0ISXZauVjFbvS7ho5C-243" value="" style="line;strokeWidth=1;fillColor=none;align=left;verticalAlign=middle;spacingTop=-1;spacingLeft=3;spacingRight=3;rotatable=0;labelPosition=right;points=[];portConstraint=eastwest;strokeColor=inherit;" vertex="1" parent="dJ0ISXZauVjFbvS7ho5C-242">
          <mxGeometry y="26" width="160" height="8" as="geometry" />
        </mxCell>
        <mxCell id="dJ0ISXZauVjFbvS7ho5C-244" value="BusController" style="swimlane;fontStyle=1;align=center;verticalAlign=top;childLayout=stackLayout;horizontal=1;startSize=26;horizontalStack=0;resizeParent=1;resizeParentMax=0;resizeLast=0;collapsible=1;marginBottom=0;whiteSpace=wrap;html=1;" vertex="1" parent="1">
          <mxGeometry x="592.4200000000001" y="1643.75" width="160" height="34" as="geometry" />
        </mxCell>
        <mxCell id="dJ0ISXZauVjFbvS7ho5C-245" value="" style="line;strokeWidth=1;fillColor=none;align=left;verticalAlign=middle;spacingTop=-1;spacingLeft=3;spacingRight=3;rotatable=0;labelPosition=right;points=[];portConstraint=eastwest;strokeColor=inherit;" vertex="1" parent="dJ0ISXZauVjFbvS7ho5C-244">
          <mxGeometry y="26" width="160" height="8" as="geometry" />
        </mxCell>
        <mxCell id="dJ0ISXZauVjFbvS7ho5C-246" value="PaymentController" style="swimlane;fontStyle=1;align=center;verticalAlign=top;childLayout=stackLayout;horizontal=1;startSize=26;horizontalStack=0;resizeParent=1;resizeParentMax=0;resizeLast=0;collapsible=1;marginBottom=0;whiteSpace=wrap;html=1;" vertex="1" parent="1">
          <mxGeometry x="229.42000000000007" y="1704.75" width="160" height="34" as="geometry" />
        </mxCell>
        <mxCell id="dJ0ISXZauVjFbvS7ho5C-247" value="" style="line;strokeWidth=1;fillColor=none;align=left;verticalAlign=middle;spacingTop=-1;spacingLeft=3;spacingRight=3;rotatable=0;labelPosition=right;points=[];portConstraint=eastwest;strokeColor=inherit;" vertex="1" parent="dJ0ISXZauVjFbvS7ho5C-246">
          <mxGeometry y="26" width="160" height="8" as="geometry" />
        </mxCell>
        <mxCell id="dJ0ISXZauVjFbvS7ho5C-248" value="TicketController" style="swimlane;fontStyle=1;align=center;verticalAlign=top;childLayout=stackLayout;horizontal=1;startSize=26;horizontalStack=0;resizeParent=1;resizeParentMax=0;resizeLast=0;collapsible=1;marginBottom=0;whiteSpace=wrap;html=1;" vertex="1" parent="1">
          <mxGeometry x="412.4200000000001" y="1643.75" width="160" height="34" as="geometry" />
        </mxCell>
        <mxCell id="dJ0ISXZauVjFbvS7ho5C-249" value="" style="line;strokeWidth=1;fillColor=none;align=left;verticalAlign=middle;spacingTop=-1;spacingLeft=3;spacingRight=3;rotatable=0;labelPosition=right;points=[];portConstraint=eastwest;strokeColor=inherit;" vertex="1" parent="dJ0ISXZauVjFbvS7ho5C-248">
          <mxGeometry y="26" width="160" height="8" as="geometry" />
        </mxCell>
        <mxCell id="dJ0ISXZauVjFbvS7ho5C-250" value="" style="endArrow=open;html=1;rounded=0;exitX=1;exitY=0.5;exitDx=0;exitDy=0;entryX=0;entryY=0.5;entryDx=0;entryDy=0;dashed=1;endFill=0;" edge="1" parent="1" source="dJ0ISXZauVjFbvS7ho5C-207" target="dJ0ISXZauVjFbvS7ho5C-209">
          <mxGeometry width="50" height="50" relative="1" as="geometry">
            <mxPoint x="422.4200000000001" y="1324.75" as="sourcePoint" />
            <mxPoint x="582.4200000000001" y="1314.75" as="targetPoint" />
          </mxGeometry>
        </mxCell>
        <mxCell id="dJ0ISXZauVjFbvS7ho5C-253" value="&lt;span style=&quot;font-size: 14px;&quot;&gt;Controller&lt;/span&gt;" style="text;strokeColor=none;fillColor=none;html=1;fontSize=24;fontStyle=1;verticalAlign=middle;align=center;" vertex="1" parent="1">
          <mxGeometry x="226.42000000000007" y="1584.75" width="118" height="40" as="geometry" />
        </mxCell>
        <mxCell id="dJ0ISXZauVjFbvS7ho5C-264" value="Register" style="swimlane;fontStyle=1;align=center;verticalAlign=top;childLayout=stackLayout;horizontal=1;startSize=26;horizontalStack=0;resizeParent=1;resizeParentMax=0;resizeLast=0;collapsible=1;marginBottom=0;whiteSpace=wrap;html=1;" vertex="1" parent="1">
          <mxGeometry x="386.4200000000001" y="1487.87" width="160" height="34" as="geometry">
            <mxRectangle x="1364" y="541" width="100" height="30" as="alternateBounds" />
          </mxGeometry>
        </mxCell>
        <mxCell id="dJ0ISXZauVjFbvS7ho5C-265" value="" style="line;strokeWidth=1;fillColor=none;align=left;verticalAlign=middle;spacingTop=-1;spacingLeft=3;spacingRight=3;rotatable=0;labelPosition=right;points=[];portConstraint=eastwest;strokeColor=inherit;" vertex="1" parent="dJ0ISXZauVjFbvS7ho5C-264">
          <mxGeometry y="26" width="160" height="8" as="geometry" />
        </mxCell>
        <mxCell id="dJ0ISXZauVjFbvS7ho5C-266" value="" style="endArrow=open;html=1;rounded=0;exitX=0.5;exitY=1;exitDx=0;exitDy=0;entryX=0.5;entryY=0;entryDx=0;entryDy=0;dashed=1;endFill=0;" edge="1" parent="1" source="dJ0ISXZauVjFbvS7ho5C-207" target="dJ0ISXZauVjFbvS7ho5C-242">
          <mxGeometry width="50" height="50" relative="1" as="geometry">
            <mxPoint x="396.4200000000001" y="1462.75" as="sourcePoint" />
            <mxPoint x="562.4200000000001" y="1461.75" as="targetPoint" />
          </mxGeometry>
        </mxCell>
        <mxCell id="dJ0ISXZauVjFbvS7ho5C-267" value="" style="endArrow=none;html=1;rounded=0;exitX=0.5;exitY=1;exitDx=0;exitDy=0;dashed=1;endFill=0;startFill=0;" edge="1" parent="1" source="dJ0ISXZauVjFbvS7ho5C-264">
          <mxGeometry width="50" height="50" relative="1" as="geometry">
            <mxPoint x="406.4200000000001" y="1472.75" as="sourcePoint" />
            <mxPoint x="312.4200000000001" y="1574.75" as="targetPoint" />
            <Array as="points">
              <mxPoint x="466.4200000000001" y="1574.75" />
            </Array>
          </mxGeometry>
        </mxCell>
        <mxCell id="dJ0ISXZauVjFbvS7ho5C-268" value="" style="endArrow=none;html=1;rounded=0;dashed=1;endFill=0;startFill=0;exitX=0.5;exitY=0;exitDx=0;exitDy=0;" edge="1" parent="1" source="dJ0ISXZauVjFbvS7ho5C-264">
          <mxGeometry width="50" height="50" relative="1" as="geometry">
            <mxPoint x="466.4200000000001" y="1480" as="sourcePoint" />
            <mxPoint x="466.4200000000001" y="1450" as="targetPoint" />
          </mxGeometry>
        </mxCell>
        <mxCell id="dJ0ISXZauVjFbvS7ho5C-281" value="" style="shape=folder;fontStyle=1;spacingTop=0;tabWidth=148;tabHeight=30;tabPosition=left;html=1;rounded=0;shadow=0;comic=0;labelBackgroundColor=none;strokeColor=#000000;strokeWidth=1;fillColor=#ffffff;fontFamily=Verdana;fontSize=10;fontColor=#000000;align=left;verticalAlign=middle;" vertex="1" parent="1">
          <mxGeometry x="810" y="1391.63" width="550" height="153.12" as="geometry" />
        </mxCell>
        <mxCell id="dJ0ISXZauVjFbvS7ho5C-282" value="&lt;span style=&quot;font-size: 14px;&quot;&gt;View.CustomerView&lt;/span&gt;" style="text;strokeColor=none;fillColor=none;html=1;fontSize=24;fontStyle=1;verticalAlign=middle;align=center;" vertex="1" parent="1">
          <mxGeometry x="828" y="1381.63" width="110" height="40" as="geometry" />
        </mxCell>
        <mxCell id="dJ0ISXZauVjFbvS7ho5C-283" value="BookingSeatView" style="swimlane;fontStyle=1;align=center;verticalAlign=top;childLayout=stackLayout;horizontal=1;startSize=26;horizontalStack=0;resizeParent=1;resizeParentMax=0;resizeLast=0;collapsible=1;marginBottom=0;whiteSpace=wrap;html=1;" vertex="1" parent="1">
          <mxGeometry x="828" y="1440.75" width="160" height="34" as="geometry" />
        </mxCell>
        <mxCell id="dJ0ISXZauVjFbvS7ho5C-284" value="" style="line;strokeWidth=1;fillColor=none;align=left;verticalAlign=middle;spacingTop=-1;spacingLeft=3;spacingRight=3;rotatable=0;labelPosition=right;points=[];portConstraint=eastwest;strokeColor=inherit;" vertex="1" parent="dJ0ISXZauVjFbvS7ho5C-283">
          <mxGeometry y="26" width="160" height="8" as="geometry" />
        </mxCell>
        <mxCell id="dJ0ISXZauVjFbvS7ho5C-285" value="CustomerDashBoardView" style="swimlane;fontStyle=1;align=center;verticalAlign=top;childLayout=stackLayout;horizontal=1;startSize=26;horizontalStack=0;resizeParent=1;resizeParentMax=0;resizeLast=0;collapsible=1;marginBottom=0;whiteSpace=wrap;html=1;" vertex="1" parent="1">
          <mxGeometry x="1180" y="1440.75" width="160" height="34" as="geometry" />
        </mxCell>
        <mxCell id="dJ0ISXZauVjFbvS7ho5C-286" value="" style="line;strokeWidth=1;fillColor=none;align=left;verticalAlign=middle;spacingTop=-1;spacingLeft=3;spacingRight=3;rotatable=0;labelPosition=right;points=[];portConstraint=eastwest;strokeColor=inherit;" vertex="1" parent="dJ0ISXZauVjFbvS7ho5C-285">
          <mxGeometry y="26" width="160" height="8" as="geometry" />
        </mxCell>
        <mxCell id="dJ0ISXZauVjFbvS7ho5C-287" value="PaymentConfirmView" style="swimlane;fontStyle=1;align=center;verticalAlign=top;childLayout=stackLayout;horizontal=1;startSize=26;horizontalStack=0;resizeParent=1;resizeParentMax=0;resizeLast=0;collapsible=1;marginBottom=0;whiteSpace=wrap;html=1;" vertex="1" parent="1">
          <mxGeometry x="1050" y="1494.75" width="160" height="34" as="geometry" />
        </mxCell>
        <mxCell id="dJ0ISXZauVjFbvS7ho5C-288" value="" style="line;strokeWidth=1;fillColor=none;align=left;verticalAlign=middle;spacingTop=-1;spacingLeft=3;spacingRight=3;rotatable=0;labelPosition=right;points=[];portConstraint=eastwest;strokeColor=inherit;" vertex="1" parent="dJ0ISXZauVjFbvS7ho5C-287">
          <mxGeometry y="26" width="160" height="8" as="geometry" />
        </mxCell>
        <mxCell id="dJ0ISXZauVjFbvS7ho5C-289" value="PaymentView" style="swimlane;fontStyle=1;align=center;verticalAlign=top;childLayout=stackLayout;horizontal=1;startSize=26;horizontalStack=0;resizeParent=1;resizeParentMax=0;resizeLast=0;collapsible=1;marginBottom=0;whiteSpace=wrap;html=1;" vertex="1" parent="1">
          <mxGeometry x="828" y="1494.75" width="160" height="34" as="geometry" />
        </mxCell>
        <mxCell id="dJ0ISXZauVjFbvS7ho5C-290" value="" style="line;strokeWidth=1;fillColor=none;align=left;verticalAlign=middle;spacingTop=-1;spacingLeft=3;spacingRight=3;rotatable=0;labelPosition=right;points=[];portConstraint=eastwest;strokeColor=inherit;" vertex="1" parent="dJ0ISXZauVjFbvS7ho5C-289">
          <mxGeometry y="26" width="160" height="8" as="geometry" />
        </mxCell>
        <mxCell id="dJ0ISXZauVjFbvS7ho5C-329" value="" style="endArrow=open;html=1;rounded=0;exitX=0.5;exitY=1;exitDx=0;exitDy=0;entryX=0.5;entryY=0;entryDx=0;entryDy=0;endFill=0;" edge="1" parent="1">
          <mxGeometry width="50" height="50" relative="1" as="geometry">
            <mxPoint x="2450" y="1060" as="sourcePoint" />
            <mxPoint x="2450" y="1216" as="targetPoint" />
          </mxGeometry>
        </mxCell>
        <mxCell id="dJ0ISXZauVjFbvS7ho5C-331" value="" style="shape=folder;fontStyle=1;spacingTop=0;tabWidth=148;tabHeight=30;tabPosition=left;html=1;rounded=0;shadow=0;comic=0;labelBackgroundColor=none;strokeColor=#000000;strokeWidth=1;fillColor=#ffffff;fontFamily=Verdana;fontSize=10;fontColor=#000000;align=left;verticalAlign=middle;" vertex="1" parent="1">
          <mxGeometry x="810" y="1594.75" width="560" height="165.25" as="geometry" />
        </mxCell>
        <mxCell id="dJ0ISXZauVjFbvS7ho5C-332" value="ManagerController" style="swimlane;fontStyle=1;align=center;verticalAlign=top;childLayout=stackLayout;horizontal=1;startSize=26;horizontalStack=0;resizeParent=1;resizeParentMax=0;resizeLast=0;collapsible=1;marginBottom=0;whiteSpace=wrap;html=1;" vertex="1" parent="1">
          <mxGeometry x="1190" y="1704.7500000000002" width="160" height="34" as="geometry" />
        </mxCell>
        <mxCell id="dJ0ISXZauVjFbvS7ho5C-333" value="" style="line;strokeWidth=1;fillColor=none;align=left;verticalAlign=middle;spacingTop=-1;spacingLeft=3;spacingRight=3;rotatable=0;labelPosition=right;points=[];portConstraint=eastwest;strokeColor=inherit;" vertex="1" parent="dJ0ISXZauVjFbvS7ho5C-332">
          <mxGeometry y="26" width="160" height="8" as="geometry" />
        </mxCell>
        <mxCell id="dJ0ISXZauVjFbvS7ho5C-334" value="AuthController" style="swimlane;fontStyle=1;align=center;verticalAlign=top;childLayout=stackLayout;horizontal=1;startSize=26;horizontalStack=0;resizeParent=1;resizeParentMax=0;resizeLast=0;collapsible=1;marginBottom=0;whiteSpace=wrap;html=1;" vertex="1" parent="1">
          <mxGeometry x="1010" y="1704.7500000000002" width="160" height="34" as="geometry" />
        </mxCell>
        <mxCell id="dJ0ISXZauVjFbvS7ho5C-335" value="" style="line;strokeWidth=1;fillColor=none;align=left;verticalAlign=middle;spacingTop=-1;spacingLeft=3;spacingRight=3;rotatable=0;labelPosition=right;points=[];portConstraint=eastwest;strokeColor=inherit;" vertex="1" parent="dJ0ISXZauVjFbvS7ho5C-334">
          <mxGeometry y="26" width="160" height="8" as="geometry" />
        </mxCell>
        <mxCell id="dJ0ISXZauVjFbvS7ho5C-336" value="BusController" style="swimlane;fontStyle=1;align=center;verticalAlign=top;childLayout=stackLayout;horizontal=1;startSize=26;horizontalStack=0;resizeParent=1;resizeParentMax=0;resizeLast=0;collapsible=1;marginBottom=0;whiteSpace=wrap;html=1;" vertex="1" parent="1">
          <mxGeometry x="827" y="1704.7500000000002" width="160" height="34" as="geometry" />
        </mxCell>
        <mxCell id="dJ0ISXZauVjFbvS7ho5C-337" value="" style="line;strokeWidth=1;fillColor=none;align=left;verticalAlign=middle;spacingTop=-1;spacingLeft=3;spacingRight=3;rotatable=0;labelPosition=right;points=[];portConstraint=eastwest;strokeColor=inherit;" vertex="1" parent="dJ0ISXZauVjFbvS7ho5C-336">
          <mxGeometry y="26" width="160" height="8" as="geometry" />
        </mxCell>
        <mxCell id="dJ0ISXZauVjFbvS7ho5C-338" value="PaymentController" style="swimlane;fontStyle=1;align=center;verticalAlign=top;childLayout=stackLayout;horizontal=1;startSize=26;horizontalStack=0;resizeParent=1;resizeParentMax=0;resizeLast=0;collapsible=1;marginBottom=0;whiteSpace=wrap;html=1;" vertex="1" parent="1">
          <mxGeometry x="828" y="1643.7500000000002" width="160" height="34" as="geometry" />
        </mxCell>
        <mxCell id="dJ0ISXZauVjFbvS7ho5C-339" value="" style="line;strokeWidth=1;fillColor=none;align=left;verticalAlign=middle;spacingTop=-1;spacingLeft=3;spacingRight=3;rotatable=0;labelPosition=right;points=[];portConstraint=eastwest;strokeColor=inherit;" vertex="1" parent="dJ0ISXZauVjFbvS7ho5C-338">
          <mxGeometry y="26" width="160" height="8" as="geometry" />
        </mxCell>
        <mxCell id="dJ0ISXZauVjFbvS7ho5C-340" value="TicketController" style="swimlane;fontStyle=1;align=center;verticalAlign=top;childLayout=stackLayout;horizontal=1;startSize=26;horizontalStack=0;resizeParent=1;resizeParentMax=0;resizeLast=0;collapsible=1;marginBottom=0;whiteSpace=wrap;html=1;" vertex="1" parent="1">
          <mxGeometry x="1010" y="1643.7500000000002" width="160" height="34" as="geometry" />
        </mxCell>
        <mxCell id="dJ0ISXZauVjFbvS7ho5C-341" value="" style="line;strokeWidth=1;fillColor=none;align=left;verticalAlign=middle;spacingTop=-1;spacingLeft=3;spacingRight=3;rotatable=0;labelPosition=right;points=[];portConstraint=eastwest;strokeColor=inherit;" vertex="1" parent="dJ0ISXZauVjFbvS7ho5C-340">
          <mxGeometry y="26" width="160" height="8" as="geometry" />
        </mxCell>
        <mxCell id="dJ0ISXZauVjFbvS7ho5C-342" value="&lt;span style=&quot;font-size: 14px;&quot;&gt;Controller&lt;/span&gt;" style="text;strokeColor=none;fillColor=none;html=1;fontSize=24;fontStyle=1;verticalAlign=middle;align=center;" vertex="1" parent="1">
          <mxGeometry x="824" y="1584.7500000000002" width="118" height="40" as="geometry" />
        </mxCell>
        <mxCell id="dJ0ISXZauVjFbvS7ho5C-344" value="" style="endArrow=open;html=1;rounded=0;exitX=0.5;exitY=1;exitDx=0;exitDy=0;entryX=0.5;entryY=0;entryDx=0;entryDy=0;endFill=0;dashed=1;" edge="1" parent="1" source="dJ0ISXZauVjFbvS7ho5C-289" target="dJ0ISXZauVjFbvS7ho5C-338">
          <mxGeometry width="50" height="50" relative="1" as="geometry">
            <mxPoint x="692" y="1374.5100000000002" as="sourcePoint" />
            <mxPoint x="692" y="1529.5100000000002" as="targetPoint" />
          </mxGeometry>
        </mxCell>
        <mxCell id="dJ0ISXZauVjFbvS7ho5C-345" value="" style="endArrow=none;html=1;rounded=0;exitX=0.5;exitY=1;exitDx=0;exitDy=0;endFill=0;dashed=1;startFill=0;" edge="1" parent="1" source="dJ0ISXZauVjFbvS7ho5C-287">
          <mxGeometry width="50" height="50" relative="1" as="geometry">
            <mxPoint x="692" y="1374.5100000000002" as="sourcePoint" />
            <mxPoint x="908" y="1570" as="targetPoint" />
            <Array as="points">
              <mxPoint x="1130" y="1570" />
            </Array>
          </mxGeometry>
        </mxCell>
        <mxCell id="dJ0ISXZauVjFbvS7ho5C-373" value="" style="endArrow=open;html=1;rounded=0;exitX=0;exitY=0.5;exitDx=0;exitDy=0;endFill=0;dashed=1;entryX=1;entryY=0.5;entryDx=0;entryDy=0;" edge="1" parent="1" source="dJ0ISXZauVjFbvS7ho5C-285" target="dJ0ISXZauVjFbvS7ho5C-283">
          <mxGeometry width="50" height="50" relative="1" as="geometry">
            <mxPoint x="1026" y="1539" as="sourcePoint" />
            <mxPoint x="988" y="1458" as="targetPoint" />
          </mxGeometry>
        </mxCell>
        <mxCell id="dJ0ISXZauVjFbvS7ho5C-374" value="" style="endArrow=open;html=1;rounded=0;exitX=0.5;exitY=1;exitDx=0;exitDy=0;entryX=0.5;entryY=0;entryDx=0;entryDy=0;endFill=0;dashed=1;" edge="1" parent="1" source="dJ0ISXZauVjFbvS7ho5C-283" target="dJ0ISXZauVjFbvS7ho5C-289">
          <mxGeometry width="50" height="50" relative="1" as="geometry">
            <mxPoint x="918" y="1539" as="sourcePoint" />
            <mxPoint x="918" y="1654" as="targetPoint" />
          </mxGeometry>
        </mxCell>
        <mxCell id="dJ0ISXZauVjFbvS7ho5C-375" value="" style="endArrow=open;html=1;rounded=0;exitX=1;exitY=0.5;exitDx=0;exitDy=0;entryX=0.5;entryY=0;entryDx=0;entryDy=0;endFill=0;dashed=1;" edge="1" parent="1" source="dJ0ISXZauVjFbvS7ho5C-283" target="dJ0ISXZauVjFbvS7ho5C-340">
          <mxGeometry width="50" height="50" relative="1" as="geometry">
            <mxPoint x="918" y="1485" as="sourcePoint" />
            <mxPoint x="918" y="1505" as="targetPoint" />
          </mxGeometry>
        </mxCell>
        <mxCell id="dJ0ISXZauVjFbvS7ho5C-387" value="" style="shape=folder;fontStyle=1;spacingTop=0;tabWidth=148;tabHeight=30;tabPosition=left;html=1;rounded=0;shadow=0;comic=0;labelBackgroundColor=none;strokeColor=#000000;strokeWidth=1;fillColor=#ffffff;fontFamily=Verdana;fontSize=10;fontColor=#000000;align=left;verticalAlign=middle;" vertex="1" parent="1">
          <mxGeometry x="210.00000000000006" y="2028.6799999999998" width="740" height="165.25" as="geometry" />
        </mxCell>
        <mxCell id="dJ0ISXZauVjFbvS7ho5C-388" value="ManagerController" style="swimlane;fontStyle=1;align=center;verticalAlign=top;childLayout=stackLayout;horizontal=1;startSize=26;horizontalStack=0;resizeParent=1;resizeParentMax=0;resizeLast=0;collapsible=1;marginBottom=0;whiteSpace=wrap;html=1;" vertex="1" parent="1">
          <mxGeometry x="228.00000000000006" y="2138.6800000000003" width="160" height="34" as="geometry" />
        </mxCell>
        <mxCell id="dJ0ISXZauVjFbvS7ho5C-389" value="" style="line;strokeWidth=1;fillColor=none;align=left;verticalAlign=middle;spacingTop=-1;spacingLeft=3;spacingRight=3;rotatable=0;labelPosition=right;points=[];portConstraint=eastwest;strokeColor=inherit;" vertex="1" parent="dJ0ISXZauVjFbvS7ho5C-388">
          <mxGeometry y="26" width="160" height="8" as="geometry" />
        </mxCell>
        <mxCell id="dJ0ISXZauVjFbvS7ho5C-390" value="AuthController" style="swimlane;fontStyle=1;align=center;verticalAlign=top;childLayout=stackLayout;horizontal=1;startSize=26;horizontalStack=0;resizeParent=1;resizeParentMax=0;resizeLast=0;collapsible=1;marginBottom=0;whiteSpace=wrap;html=1;" vertex="1" parent="1">
          <mxGeometry x="770.0000000000001" y="2138.6800000000003" width="160" height="34" as="geometry" />
        </mxCell>
        <mxCell id="dJ0ISXZauVjFbvS7ho5C-391" value="" style="line;strokeWidth=1;fillColor=none;align=left;verticalAlign=middle;spacingTop=-1;spacingLeft=3;spacingRight=3;rotatable=0;labelPosition=right;points=[];portConstraint=eastwest;strokeColor=inherit;" vertex="1" parent="dJ0ISXZauVjFbvS7ho5C-390">
          <mxGeometry y="26" width="160" height="8" as="geometry" />
        </mxCell>
        <mxCell id="dJ0ISXZauVjFbvS7ho5C-392" value="BusController" style="swimlane;fontStyle=1;align=center;verticalAlign=top;childLayout=stackLayout;horizontal=1;startSize=26;horizontalStack=0;resizeParent=1;resizeParentMax=0;resizeLast=0;collapsible=1;marginBottom=0;whiteSpace=wrap;html=1;" vertex="1" parent="1">
          <mxGeometry x="770.0000000000001" y="2077.6800000000003" width="160" height="34" as="geometry" />
        </mxCell>
        <mxCell id="dJ0ISXZauVjFbvS7ho5C-393" value="" style="line;strokeWidth=1;fillColor=none;align=left;verticalAlign=middle;spacingTop=-1;spacingLeft=3;spacingRight=3;rotatable=0;labelPosition=right;points=[];portConstraint=eastwest;strokeColor=inherit;" vertex="1" parent="dJ0ISXZauVjFbvS7ho5C-392">
          <mxGeometry y="26" width="160" height="8" as="geometry" />
        </mxCell>
        <mxCell id="dJ0ISXZauVjFbvS7ho5C-394" value="PaymentController" style="swimlane;fontStyle=1;align=center;verticalAlign=top;childLayout=stackLayout;horizontal=1;startSize=26;horizontalStack=0;resizeParent=1;resizeParentMax=0;resizeLast=0;collapsible=1;marginBottom=0;whiteSpace=wrap;html=1;" vertex="1" parent="1">
          <mxGeometry x="228.00000000000006" y="2077.6800000000003" width="160" height="34" as="geometry" />
        </mxCell>
        <mxCell id="dJ0ISXZauVjFbvS7ho5C-395" value="" style="line;strokeWidth=1;fillColor=none;align=left;verticalAlign=middle;spacingTop=-1;spacingLeft=3;spacingRight=3;rotatable=0;labelPosition=right;points=[];portConstraint=eastwest;strokeColor=inherit;" vertex="1" parent="dJ0ISXZauVjFbvS7ho5C-394">
          <mxGeometry y="26" width="160" height="8" as="geometry" />
        </mxCell>
        <mxCell id="dJ0ISXZauVjFbvS7ho5C-396" value="TicketController" style="swimlane;fontStyle=1;align=center;verticalAlign=top;childLayout=stackLayout;horizontal=1;startSize=26;horizontalStack=0;resizeParent=1;resizeParentMax=0;resizeLast=0;collapsible=1;marginBottom=0;whiteSpace=wrap;html=1;" vertex="1" parent="1">
          <mxGeometry x="410.00000000000006" y="2077.6800000000003" width="160" height="34" as="geometry" />
        </mxCell>
        <mxCell id="dJ0ISXZauVjFbvS7ho5C-397" value="" style="line;strokeWidth=1;fillColor=none;align=left;verticalAlign=middle;spacingTop=-1;spacingLeft=3;spacingRight=3;rotatable=0;labelPosition=right;points=[];portConstraint=eastwest;strokeColor=inherit;" vertex="1" parent="dJ0ISXZauVjFbvS7ho5C-396">
          <mxGeometry y="26" width="160" height="8" as="geometry" />
        </mxCell>
        <mxCell id="dJ0ISXZauVjFbvS7ho5C-398" value="&lt;span style=&quot;font-size: 14px;&quot;&gt;Controller&lt;/span&gt;" style="text;strokeColor=none;fillColor=none;html=1;fontSize=24;fontStyle=1;verticalAlign=middle;align=center;" vertex="1" parent="1">
          <mxGeometry x="224.00000000000006" y="2018.68" width="118" height="40" as="geometry" />
        </mxCell>
        <mxCell id="dJ0ISXZauVjFbvS7ho5C-405" value="" style="shape=folder;fontStyle=1;spacingTop=0;tabWidth=148;tabHeight=30;tabPosition=left;html=1;rounded=0;shadow=0;comic=0;labelBackgroundColor=none;strokeColor=#000000;strokeWidth=1;fillColor=#ffffff;fontFamily=Verdana;fontSize=10;fontColor=#000000;align=left;verticalAlign=middle;" vertex="1" parent="1">
          <mxGeometry x="210.00000000000006" y="1800" width="560" height="204.25" as="geometry" />
        </mxCell>
        <mxCell id="dJ0ISXZauVjFbvS7ho5C-406" value="ManagerDashBoardView" style="swimlane;fontStyle=1;align=center;verticalAlign=top;childLayout=stackLayout;horizontal=1;startSize=26;horizontalStack=0;resizeParent=1;resizeParentMax=0;resizeLast=0;collapsible=1;marginBottom=0;whiteSpace=wrap;html=1;" vertex="1" parent="1">
          <mxGeometry x="410.00000000000006" y="1885.1299999999999" width="160" height="34" as="geometry" />
        </mxCell>
        <mxCell id="dJ0ISXZauVjFbvS7ho5C-407" value="" style="line;strokeWidth=1;fillColor=none;align=left;verticalAlign=middle;spacingTop=-1;spacingLeft=3;spacingRight=3;rotatable=0;labelPosition=right;points=[];portConstraint=eastwest;strokeColor=inherit;" vertex="1" parent="dJ0ISXZauVjFbvS7ho5C-406">
          <mxGeometry y="26" width="160" height="8" as="geometry" />
        </mxCell>
        <mxCell id="dJ0ISXZauVjFbvS7ho5C-408" value="ManageTripView" style="swimlane;fontStyle=1;align=center;verticalAlign=top;childLayout=stackLayout;horizontal=1;startSize=26;horizontalStack=0;resizeParent=1;resizeParentMax=0;resizeLast=0;collapsible=1;marginBottom=0;whiteSpace=wrap;html=1;" vertex="1" parent="1">
          <mxGeometry x="590.0000000000001" y="1950" width="160" height="34" as="geometry" />
        </mxCell>
        <mxCell id="dJ0ISXZauVjFbvS7ho5C-409" value="" style="line;strokeWidth=1;fillColor=none;align=left;verticalAlign=middle;spacingTop=-1;spacingLeft=3;spacingRight=3;rotatable=0;labelPosition=right;points=[];portConstraint=eastwest;strokeColor=inherit;" vertex="1" parent="dJ0ISXZauVjFbvS7ho5C-408">
          <mxGeometry y="26" width="160" height="8" as="geometry" />
        </mxCell>
        <mxCell id="dJ0ISXZauVjFbvS7ho5C-410" value="ManageBusView" style="swimlane;fontStyle=1;align=center;verticalAlign=top;childLayout=stackLayout;horizontal=1;startSize=26;horizontalStack=0;resizeParent=1;resizeParentMax=0;resizeLast=0;collapsible=1;marginBottom=0;whiteSpace=wrap;html=1;" vertex="1" parent="1">
          <mxGeometry x="590.0000000000001" y="1898.25" width="160" height="34" as="geometry" />
        </mxCell>
        <mxCell id="dJ0ISXZauVjFbvS7ho5C-411" value="" style="line;strokeWidth=1;fillColor=none;align=left;verticalAlign=middle;spacingTop=-1;spacingLeft=3;spacingRight=3;rotatable=0;labelPosition=right;points=[];portConstraint=eastwest;strokeColor=inherit;" vertex="1" parent="dJ0ISXZauVjFbvS7ho5C-410">
          <mxGeometry y="26" width="160" height="8" as="geometry" />
        </mxCell>
        <mxCell id="dJ0ISXZauVjFbvS7ho5C-412" value="RevenueReportView" style="swimlane;fontStyle=1;align=center;verticalAlign=top;childLayout=stackLayout;horizontal=1;startSize=26;horizontalStack=0;resizeParent=1;resizeParentMax=0;resizeLast=0;collapsible=1;marginBottom=0;whiteSpace=wrap;html=1;" vertex="1" parent="1">
          <mxGeometry x="230.00000000000006" y="1950" width="160" height="34" as="geometry" />
        </mxCell>
        <mxCell id="dJ0ISXZauVjFbvS7ho5C-413" value="" style="line;strokeWidth=1;fillColor=none;align=left;verticalAlign=middle;spacingTop=-1;spacingLeft=3;spacingRight=3;rotatable=0;labelPosition=right;points=[];portConstraint=eastwest;strokeColor=inherit;" vertex="1" parent="dJ0ISXZauVjFbvS7ho5C-412">
          <mxGeometry y="26" width="160" height="8" as="geometry" />
        </mxCell>
        <mxCell id="dJ0ISXZauVjFbvS7ho5C-414" value="ViewTicketListView" style="swimlane;fontStyle=1;align=center;verticalAlign=top;childLayout=stackLayout;horizontal=1;startSize=26;horizontalStack=0;resizeParent=1;resizeParentMax=0;resizeLast=0;collapsible=1;marginBottom=0;whiteSpace=wrap;html=1;" vertex="1" parent="1">
          <mxGeometry x="410.00000000000006" y="1950" width="160" height="34" as="geometry" />
        </mxCell>
        <mxCell id="dJ0ISXZauVjFbvS7ho5C-415" value="" style="line;strokeWidth=1;fillColor=none;align=left;verticalAlign=middle;spacingTop=-1;spacingLeft=3;spacingRight=3;rotatable=0;labelPosition=right;points=[];portConstraint=eastwest;strokeColor=inherit;" vertex="1" parent="dJ0ISXZauVjFbvS7ho5C-414">
          <mxGeometry y="26" width="160" height="8" as="geometry" />
        </mxCell>
        <mxCell id="dJ0ISXZauVjFbvS7ho5C-416" value="UserAccountView" style="swimlane;fontStyle=1;align=center;verticalAlign=top;childLayout=stackLayout;horizontal=1;startSize=26;horizontalStack=0;resizeParent=1;resizeParentMax=0;resizeLast=0;collapsible=1;marginBottom=0;whiteSpace=wrap;html=1;" vertex="1" parent="1">
          <mxGeometry x="230.00000000000006" y="1898.25" width="160" height="34" as="geometry" />
        </mxCell>
        <mxCell id="dJ0ISXZauVjFbvS7ho5C-417" value="" style="line;strokeWidth=1;fillColor=none;align=left;verticalAlign=middle;spacingTop=-1;spacingLeft=3;spacingRight=3;rotatable=0;labelPosition=right;points=[];portConstraint=eastwest;strokeColor=inherit;" vertex="1" parent="dJ0ISXZauVjFbvS7ho5C-416">
          <mxGeometry y="26" width="160" height="8" as="geometry" />
        </mxCell>
        <mxCell id="dJ0ISXZauVjFbvS7ho5C-418" value="CreateManageView" style="swimlane;fontStyle=1;align=center;verticalAlign=top;childLayout=stackLayout;horizontal=1;startSize=26;horizontalStack=0;resizeParent=1;resizeParentMax=0;resizeLast=0;collapsible=1;marginBottom=0;whiteSpace=wrap;html=1;" vertex="1" parent="1">
          <mxGeometry x="230.00000000000006" y="1845.56" width="160" height="34" as="geometry" />
        </mxCell>
        <mxCell id="dJ0ISXZauVjFbvS7ho5C-419" value="" style="line;strokeWidth=1;fillColor=none;align=left;verticalAlign=middle;spacingTop=-1;spacingLeft=3;spacingRight=3;rotatable=0;labelPosition=right;points=[];portConstraint=eastwest;strokeColor=inherit;" vertex="1" parent="dJ0ISXZauVjFbvS7ho5C-418">
          <mxGeometry y="26" width="160" height="8" as="geometry" />
        </mxCell>
        <mxCell id="dJ0ISXZauVjFbvS7ho5C-420" value="&lt;span style=&quot;font-size: 14px;&quot;&gt;View.ManagerView&lt;/span&gt;" style="text;strokeColor=none;fillColor=none;html=1;fontSize=24;fontStyle=1;verticalAlign=middle;align=center;" vertex="1" parent="1">
          <mxGeometry x="2574" y="-60" width="118" height="50" as="geometry" />
        </mxCell>
        <mxCell id="dJ0ISXZauVjFbvS7ho5C-421" value="TripController&lt;span style=&quot;color: rgba(0, 0, 0, 0); font-family: monospace; font-size: 0px; font-weight: 400; text-align: start; text-wrap-mode: nowrap;&quot;&gt;%3CmxGraphModel%3E%3Croot%3E%3CmxCell%20id%3D%220%22%2F%3E%3CmxCell%20id%3D%221%22%20parent%3D%220%22%2F%3E%3CmxCell%20id%3D%222%22%20value%3D%22BusController%22%20style%3D%22swimlane%3BfontStyle%3D1%3Balign%3Dcenter%3BverticalAlign%3Dtop%3BchildLayout%3DstackLayout%3Bhorizontal%3D1%3BstartSize%3D26%3BhorizontalStack%3D0%3BresizeParent%3D1%3BresizeParentMax%3D0%3BresizeLast%3D0%3Bcollapsible%3D1%3BmarginBottom%3D0%3BwhiteSpace%3Dwrap%3Bhtml%3D1%3B%22%20vertex%3D%221%22%20parent%3D%221%22%3E%3CmxGeometry%20x%3D%22592.4200000000001%22%20y%3D%221643.75%22%20width%3D%22160%22%20height%3D%2234%22%20as%3D%22geometry%22%2F%3E%3C%2FmxCell%3E%3CmxCell%20id%3D%223%22%20value%3D%22%22%20style%3D%22line%3BstrokeWidth%3D1%3BfillColor%3Dnone%3Balign%3Dleft%3BverticalAlign%3Dmiddle%3BspacingTop%3D-1%3BspacingLeft%3D3%3BspacingRight%3D3%3Brotatable%3D0%3BlabelPosition%3Dright%3Bpoints%3D%5B%5D%3BportConstraint%3Deastwest%3BstrokeColor%3Dinherit%3B%22%20vertex%3D%221%22%20parent%3D%222%22%3E%3CmxGeometry%20y%3D%2226%22%20width%3D%22160%22%20height%3D%228%22%20as%3D%22geometry%22%2F%3E%3C%2FmxCell%3E%3C%2Froot%3E%3C%2FmxGraphModel%3E&lt;/span&gt;" style="swimlane;fontStyle=1;align=center;verticalAlign=top;childLayout=stackLayout;horizontal=1;startSize=26;horizontalStack=0;resizeParent=1;resizeParentMax=0;resizeLast=0;collapsible=1;marginBottom=0;whiteSpace=wrap;html=1;" vertex="1" parent="1">
          <mxGeometry x="592.4200000000001" y="1704.75" width="160" height="34" as="geometry" />
        </mxCell>
        <mxCell id="dJ0ISXZauVjFbvS7ho5C-422" value="" style="line;strokeWidth=1;fillColor=none;align=left;verticalAlign=middle;spacingTop=-1;spacingLeft=3;spacingRight=3;rotatable=0;labelPosition=right;points=[];portConstraint=eastwest;strokeColor=inherit;" vertex="1" parent="dJ0ISXZauVjFbvS7ho5C-421">
          <mxGeometry y="26" width="160" height="8" as="geometry" />
        </mxCell>
        <mxCell id="dJ0ISXZauVjFbvS7ho5C-423" value="TripController&lt;span style=&quot;color: rgba(0, 0, 0, 0); font-family: monospace; font-size: 0px; font-weight: 400; text-align: start; text-wrap-mode: nowrap;&quot;&gt;%3CmxGraphModel%3E%3Croot%3E%3CmxCell%20id%3D%220%22%2F%3E%3CmxCell%20id%3D%221%22%20parent%3D%220%22%2F%3E%3CmxCell%20id%3D%222%22%20value%3D%22BusController%22%20style%3D%22swimlane%3BfontStyle%3D1%3Balign%3Dcenter%3BverticalAlign%3Dtop%3BchildLayout%3DstackLayout%3Bhorizontal%3D1%3BstartSize%3D26%3BhorizontalStack%3D0%3BresizeParent%3D1%3BresizeParentMax%3D0%3BresizeLast%3D0%3Bcollapsible%3D1%3BmarginBottom%3D0%3BwhiteSpace%3Dwrap%3Bhtml%3D1%3B%22%20vertex%3D%221%22%20parent%3D%221%22%3E%3CmxGeometry%20x%3D%22592.4200000000001%22%20y%3D%221643.75%22%20width%3D%22160%22%20height%3D%2234%22%20as%3D%22geometry%22%2F%3E%3C%2FmxCell%3E%3CmxCell%20id%3D%223%22%20value%3D%22%22%20style%3D%22line%3BstrokeWidth%3D1%3BfillColor%3Dnone%3Balign%3Dleft%3BverticalAlign%3Dmiddle%3BspacingTop%3D-1%3BspacingLeft%3D3%3BspacingRight%3D3%3Brotatable%3D0%3BlabelPosition%3Dright%3Bpoints%3D%5B%5D%3BportConstraint%3Deastwest%3BstrokeColor%3Dinherit%3B%22%20vertex%3D%221%22%20parent%3D%222%22%3E%3CmxGeometry%20y%3D%2226%22%20width%3D%22160%22%20height%3D%228%22%20as%3D%22geometry%22%2F%3E%3C%2FmxCell%3E%3C%2Froot%3E%3C%2FmxGraphModel%3E&lt;/span&gt;" style="swimlane;fontStyle=1;align=center;verticalAlign=top;childLayout=stackLayout;horizontal=1;startSize=26;horizontalStack=0;resizeParent=1;resizeParentMax=0;resizeLast=0;collapsible=1;marginBottom=0;whiteSpace=wrap;html=1;" vertex="1" parent="1">
          <mxGeometry x="1190" y="1643.75" width="160" height="34" as="geometry" />
        </mxCell>
        <mxCell id="dJ0ISXZauVjFbvS7ho5C-424" value="" style="line;strokeWidth=1;fillColor=none;align=left;verticalAlign=middle;spacingTop=-1;spacingLeft=3;spacingRight=3;rotatable=0;labelPosition=right;points=[];portConstraint=eastwest;strokeColor=inherit;" vertex="1" parent="dJ0ISXZauVjFbvS7ho5C-423">
          <mxGeometry y="26" width="160" height="8" as="geometry" />
        </mxCell>
        <mxCell id="dJ0ISXZauVjFbvS7ho5C-376" value="" style="endArrow=open;html=1;rounded=0;entryX=0.75;entryY=0;entryDx=0;entryDy=0;endFill=0;dashed=1;exitX=0.5;exitY=0.781;exitDx=0;exitDy=0;exitPerimeter=0;" edge="1" parent="1" source="dJ0ISXZauVjFbvS7ho5C-286" target="dJ0ISXZauVjFbvS7ho5C-340">
          <mxGeometry width="50" height="50" relative="1" as="geometry">
            <mxPoint x="1268" y="1473" as="sourcePoint" />
            <mxPoint x="1270" y="1644" as="targetPoint" />
            <Array as="points">
              <mxPoint x="1260" y="1600" />
              <mxPoint x="1130" y="1600" />
            </Array>
          </mxGeometry>
        </mxCell>
        <mxCell id="dJ0ISXZauVjFbvS7ho5C-425" value="TripController&lt;span style=&quot;color: rgba(0, 0, 0, 0); font-family: monospace; font-size: 0px; font-weight: 400; text-align: start; text-wrap-mode: nowrap;&quot;&gt;%3CmxGraphModel%3E%3Croot%3E%3CmxCell%20id%3D%220%22%2F%3E%3CmxCell%20id%3D%221%22%20parent%3D%220%22%2F%3E%3CmxCell%20id%3D%222%22%20value%3D%22BusController%22%20style%3D%22swimlane%3BfontStyle%3D1%3Balign%3Dcenter%3BverticalAlign%3Dtop%3BchildLayout%3DstackLayout%3Bhorizontal%3D1%3BstartSize%3D26%3BhorizontalStack%3D0%3BresizeParent%3D1%3BresizeParentMax%3D0%3BresizeLast%3D0%3Bcollapsible%3D1%3BmarginBottom%3D0%3BwhiteSpace%3Dwrap%3Bhtml%3D1%3B%22%20vertex%3D%221%22%20parent%3D%221%22%3E%3CmxGeometry%20x%3D%22592.4200000000001%22%20y%3D%221643.75%22%20width%3D%22160%22%20height%3D%2234%22%20as%3D%22geometry%22%2F%3E%3C%2FmxCell%3E%3CmxCell%20id%3D%223%22%20value%3D%22%22%20style%3D%22line%3BstrokeWidth%3D1%3BfillColor%3Dnone%3Balign%3Dleft%3BverticalAlign%3Dmiddle%3BspacingTop%3D-1%3BspacingLeft%3D3%3BspacingRight%3D3%3Brotatable%3D0%3BlabelPosition%3Dright%3Bpoints%3D%5B%5D%3BportConstraint%3Deastwest%3BstrokeColor%3Dinherit%3B%22%20vertex%3D%221%22%20parent%3D%222%22%3E%3CmxGeometry%20y%3D%2226%22%20width%3D%22160%22%20height%3D%228%22%20as%3D%22geometry%22%2F%3E%3C%2FmxCell%3E%3C%2Froot%3E%3C%2FmxGraphModel%3E&lt;/span&gt;" style="swimlane;fontStyle=1;align=center;verticalAlign=top;childLayout=stackLayout;horizontal=1;startSize=26;horizontalStack=0;resizeParent=1;resizeParentMax=0;resizeLast=0;collapsible=1;marginBottom=0;whiteSpace=wrap;html=1;" vertex="1" parent="1">
          <mxGeometry x="590.0000000000001" y="2077.68" width="160" height="34" as="geometry" />
        </mxCell>
        <mxCell id="dJ0ISXZauVjFbvS7ho5C-426" value="" style="line;strokeWidth=1;fillColor=none;align=left;verticalAlign=middle;spacingTop=-1;spacingLeft=3;spacingRight=3;rotatable=0;labelPosition=right;points=[];portConstraint=eastwest;strokeColor=inherit;" vertex="1" parent="dJ0ISXZauVjFbvS7ho5C-425">
          <mxGeometry y="26" width="160" height="8" as="geometry" />
        </mxCell>
        <mxCell id="dJ0ISXZauVjFbvS7ho5C-427" value="" style="endArrow=open;html=1;rounded=0;endFill=0;dashed=1;" edge="1" parent="1">
          <mxGeometry width="50" height="50" relative="1" as="geometry">
            <mxPoint x="2495.5" y="-10" as="sourcePoint" />
            <mxPoint x="2496" y="120" as="targetPoint" />
          </mxGeometry>
        </mxCell>
        <mxCell id="dJ0ISXZauVjFbvS7ho5C-428" value="" style="endArrow=open;html=1;rounded=0;endFill=0;dashed=1;exitX=1;exitY=0.5;exitDx=0;exitDy=0;entryX=0.5;entryY=0;entryDx=0;entryDy=0;" edge="1" parent="1" source="dJ0ISXZauVjFbvS7ho5C-410" target="dJ0ISXZauVjFbvS7ho5C-392">
          <mxGeometry width="50" height="50" relative="1" as="geometry">
            <mxPoint x="155.50000000000006" y="1845.56" as="sourcePoint" />
            <mxPoint x="156.00000000000006" y="1975.56" as="targetPoint" />
            <Array as="points">
              <mxPoint x="850.0000000000001" y="1915.56" />
            </Array>
          </mxGeometry>
        </mxCell>
        <mxCell id="dJ0ISXZauVjFbvS7ho5C-429" value="" style="endArrow=open;html=1;rounded=0;endFill=0;dashed=1;exitX=0.5;exitY=1;exitDx=0;exitDy=0;entryX=0.5;entryY=0;entryDx=0;entryDy=0;" edge="1" parent="1" source="dJ0ISXZauVjFbvS7ho5C-408" target="dJ0ISXZauVjFbvS7ho5C-425">
          <mxGeometry width="50" height="50" relative="1" as="geometry">
            <mxPoint x="155.50000000000006" y="1845.56" as="sourcePoint" />
            <mxPoint x="156.00000000000006" y="1975.56" as="targetPoint" />
          </mxGeometry>
        </mxCell>
        <mxCell id="dJ0ISXZauVjFbvS7ho5C-430" value="" style="endArrow=none;html=1;rounded=0;endFill=0;dashed=1;exitX=1;exitY=0.5;exitDx=0;exitDy=0;startFill=0;" edge="1" parent="1" source="dJ0ISXZauVjFbvS7ho5C-408">
          <mxGeometry width="50" height="50" relative="1" as="geometry">
            <mxPoint x="165.50000000000006" y="1855.56" as="sourcePoint" />
            <mxPoint x="850.0000000000001" y="1965.56" as="targetPoint" />
          </mxGeometry>
        </mxCell>
        <mxCell id="dJ0ISXZauVjFbvS7ho5C-431" value="" style="endArrow=open;html=1;rounded=0;endFill=0;dashed=1;exitX=0.5;exitY=1;exitDx=0;exitDy=0;" edge="1" parent="1" source="dJ0ISXZauVjFbvS7ho5C-412">
          <mxGeometry width="50" height="50" relative="1" as="geometry">
            <mxPoint x="175.50000000000006" y="1865.56" as="sourcePoint" />
            <mxPoint x="310.00000000000006" y="2077.56" as="targetPoint" />
          </mxGeometry>
        </mxCell>
        <mxCell id="dJ0ISXZauVjFbvS7ho5C-432" value="" style="endArrow=open;html=1;rounded=0;endFill=0;dashed=1;exitX=0;exitY=0.5;exitDx=0;exitDy=0;entryX=0;entryY=0.5;entryDx=0;entryDy=0;" edge="1" parent="1" source="dJ0ISXZauVjFbvS7ho5C-416" target="dJ0ISXZauVjFbvS7ho5C-388">
          <mxGeometry width="50" height="50" relative="1" as="geometry">
            <mxPoint x="155.50000000000006" y="1845.56" as="sourcePoint" />
            <mxPoint x="156.00000000000006" y="1975.56" as="targetPoint" />
            <Array as="points">
              <mxPoint x="170.00000000000006" y="1915.56" />
              <mxPoint x="170.00000000000006" y="2155.56" />
            </Array>
          </mxGeometry>
        </mxCell>
        <mxCell id="dJ0ISXZauVjFbvS7ho5C-433" value="" style="endArrow=none;html=1;rounded=0;endFill=0;dashed=1;exitX=0;exitY=0.5;exitDx=0;exitDy=0;startFill=0;" edge="1" parent="1" source="dJ0ISXZauVjFbvS7ho5C-418">
          <mxGeometry width="50" height="50" relative="1" as="geometry">
            <mxPoint x="155.50000000000006" y="1845.56" as="sourcePoint" />
            <mxPoint x="170.00000000000006" y="1915.56" as="targetPoint" />
            <Array as="points">
              <mxPoint x="170.00000000000006" y="1862.56" />
            </Array>
          </mxGeometry>
        </mxCell>
        <mxCell id="dJ0ISXZauVjFbvS7ho5C-434" value="" style="endArrow=open;html=1;rounded=0;endFill=0;dashed=1;exitX=0.5;exitY=1;exitDx=0;exitDy=0;entryX=0.5;entryY=0;entryDx=0;entryDy=0;" edge="1" parent="1" source="dJ0ISXZauVjFbvS7ho5C-414" target="dJ0ISXZauVjFbvS7ho5C-396">
          <mxGeometry width="50" height="50" relative="1" as="geometry">
            <mxPoint x="155.50000000000006" y="1845.56" as="sourcePoint" />
            <mxPoint x="156.00000000000006" y="1975.56" as="targetPoint" />
          </mxGeometry>
        </mxCell>
        <mxCell id="dJ0ISXZauVjFbvS7ho5C-435" value="" style="endArrow=open;html=1;rounded=0;endFill=0;dashed=1;exitX=0;exitY=0.5;exitDx=0;exitDy=0;entryX=1;entryY=0.5;entryDx=0;entryDy=0;" edge="1" parent="1" source="dJ0ISXZauVjFbvS7ho5C-406" target="dJ0ISXZauVjFbvS7ho5C-416">
          <mxGeometry width="50" height="50" relative="1" as="geometry">
            <mxPoint x="155.50000000000006" y="1845.56" as="sourcePoint" />
            <mxPoint x="156.00000000000006" y="1975.56" as="targetPoint" />
          </mxGeometry>
        </mxCell>
        <mxCell id="dJ0ISXZauVjFbvS7ho5C-436" value="" style="endArrow=open;html=1;rounded=0;endFill=0;dashed=1;exitX=1;exitY=0.5;exitDx=0;exitDy=0;entryX=0;entryY=0.5;entryDx=0;entryDy=0;" edge="1" parent="1" source="dJ0ISXZauVjFbvS7ho5C-406" target="dJ0ISXZauVjFbvS7ho5C-410">
          <mxGeometry width="50" height="50" relative="1" as="geometry">
            <mxPoint x="165.50000000000006" y="1855.56" as="sourcePoint" />
            <mxPoint x="166.00000000000006" y="1985.56" as="targetPoint" />
          </mxGeometry>
        </mxCell>
        <mxCell id="dJ0ISXZauVjFbvS7ho5C-437" value="" style="endArrow=open;html=1;rounded=0;endFill=0;dashed=1;exitX=0.5;exitY=0;exitDx=0;exitDy=0;entryX=1;entryY=0.5;entryDx=0;entryDy=0;" edge="1" parent="1" source="dJ0ISXZauVjFbvS7ho5C-406" target="dJ0ISXZauVjFbvS7ho5C-418">
          <mxGeometry width="50" height="50" relative="1" as="geometry">
            <mxPoint x="175.50000000000006" y="1865.56" as="sourcePoint" />
            <mxPoint x="176.00000000000006" y="1995.56" as="targetPoint" />
            <Array as="points">
              <mxPoint x="490.00000000000006" y="1862.56" />
            </Array>
          </mxGeometry>
        </mxCell>
        <mxCell id="dJ0ISXZauVjFbvS7ho5C-438" value="" style="endArrow=open;html=1;rounded=0;endFill=0;dashed=1;exitX=0.5;exitY=1;exitDx=0;exitDy=0;entryX=1;entryY=0.5;entryDx=0;entryDy=0;" edge="1" parent="1" source="dJ0ISXZauVjFbvS7ho5C-406" target="dJ0ISXZauVjFbvS7ho5C-412">
          <mxGeometry width="50" height="50" relative="1" as="geometry">
            <mxPoint x="185.50000000000006" y="1875.56" as="sourcePoint" />
            <mxPoint x="186.00000000000006" y="2005.56" as="targetPoint" />
            <Array as="points">
              <mxPoint x="490.00000000000006" y="1935.56" />
              <mxPoint x="400.00000000000006" y="1935.56" />
              <mxPoint x="400.00000000000006" y="1966.56" />
            </Array>
          </mxGeometry>
        </mxCell>
        <mxCell id="dJ0ISXZauVjFbvS7ho5C-439" value="" style="endArrow=open;html=1;rounded=0;endFill=0;dashed=1;exitX=0.5;exitY=1;exitDx=0;exitDy=0;entryX=1;entryY=0.5;entryDx=0;entryDy=0;" edge="1" parent="1">
          <mxGeometry width="50" height="50" relative="1" as="geometry">
            <mxPoint x="490.00000000000006" y="1919.1299999999999" as="sourcePoint" />
            <mxPoint x="590.0000000000001" y="1966.1299999999999" as="targetPoint" />
            <Array as="points">
              <mxPoint x="490.00000000000006" y="1935.1299999999999" />
              <mxPoint x="580.0000000000001" y="1935.1299999999999" />
              <mxPoint x="580.0000000000001" y="1966.1299999999999" />
            </Array>
          </mxGeometry>
        </mxCell>
        <mxCell id="dJ0ISXZauVjFbvS7ho5C-440" value="" style="endArrow=open;html=1;rounded=0;endFill=0;dashed=1;exitX=0.5;exitY=1;exitDx=0;exitDy=0;entryX=0.5;entryY=0;entryDx=0;entryDy=0;" edge="1" parent="1" source="dJ0ISXZauVjFbvS7ho5C-406" target="dJ0ISXZauVjFbvS7ho5C-414">
          <mxGeometry width="50" height="50" relative="1" as="geometry">
            <mxPoint x="155.50000000000006" y="1845.56" as="sourcePoint" />
            <mxPoint x="156.00000000000006" y="1975.56" as="targetPoint" />
          </mxGeometry>
        </mxCell>
        <mxCell id="dJ0ISXZauVjFbvS7ho5C-441" value="" style="shape=folder;fontStyle=1;spacingTop=0;tabWidth=148;tabHeight=30;tabPosition=left;html=1;rounded=0;shadow=0;comic=0;labelBackgroundColor=none;strokeColor=#000000;strokeWidth=1;fillColor=#ffffff;fontFamily=Verdana;fontSize=10;fontColor=#000000;align=left;verticalAlign=middle;" vertex="1" parent="1">
          <mxGeometry x="1110" y="1810" width="560" height="165.25" as="geometry" />
        </mxCell>
        <mxCell id="dJ0ISXZauVjFbvS7ho5C-442" value="ManagerController" style="swimlane;fontStyle=1;align=center;verticalAlign=top;childLayout=stackLayout;horizontal=1;startSize=26;horizontalStack=0;resizeParent=1;resizeParentMax=0;resizeLast=0;collapsible=1;marginBottom=0;whiteSpace=wrap;html=1;" vertex="1" parent="1">
          <mxGeometry x="1500" y="1920.0000000000002" width="160" height="34" as="geometry" />
        </mxCell>
        <mxCell id="dJ0ISXZauVjFbvS7ho5C-443" value="" style="line;strokeWidth=1;fillColor=none;align=left;verticalAlign=middle;spacingTop=-1;spacingLeft=3;spacingRight=3;rotatable=0;labelPosition=right;points=[];portConstraint=eastwest;strokeColor=inherit;" vertex="1" parent="dJ0ISXZauVjFbvS7ho5C-442">
          <mxGeometry y="26" width="160" height="8" as="geometry" />
        </mxCell>
        <mxCell id="dJ0ISXZauVjFbvS7ho5C-444" value="AuthController" style="swimlane;fontStyle=1;align=center;verticalAlign=top;childLayout=stackLayout;horizontal=1;startSize=26;horizontalStack=0;resizeParent=1;resizeParentMax=0;resizeLast=0;collapsible=1;marginBottom=0;whiteSpace=wrap;html=1;" vertex="1" parent="1">
          <mxGeometry x="1310" y="1920.0000000000002" width="160" height="34" as="geometry" />
        </mxCell>
        <mxCell id="dJ0ISXZauVjFbvS7ho5C-445" value="" style="line;strokeWidth=1;fillColor=none;align=left;verticalAlign=middle;spacingTop=-1;spacingLeft=3;spacingRight=3;rotatable=0;labelPosition=right;points=[];portConstraint=eastwest;strokeColor=inherit;" vertex="1" parent="dJ0ISXZauVjFbvS7ho5C-444">
          <mxGeometry y="26" width="160" height="8" as="geometry" />
        </mxCell>
        <mxCell id="dJ0ISXZauVjFbvS7ho5C-446" value="BusController" style="swimlane;fontStyle=1;align=center;verticalAlign=top;childLayout=stackLayout;horizontal=1;startSize=26;horizontalStack=0;resizeParent=1;resizeParentMax=0;resizeLast=0;collapsible=1;marginBottom=0;whiteSpace=wrap;html=1;" vertex="1" parent="1">
          <mxGeometry x="1500" y="1859.0000000000002" width="160" height="34" as="geometry" />
        </mxCell>
        <mxCell id="dJ0ISXZauVjFbvS7ho5C-447" value="" style="line;strokeWidth=1;fillColor=none;align=left;verticalAlign=middle;spacingTop=-1;spacingLeft=3;spacingRight=3;rotatable=0;labelPosition=right;points=[];portConstraint=eastwest;strokeColor=inherit;" vertex="1" parent="dJ0ISXZauVjFbvS7ho5C-446">
          <mxGeometry y="26" width="160" height="8" as="geometry" />
        </mxCell>
        <mxCell id="dJ0ISXZauVjFbvS7ho5C-448" value="PaymentController" style="swimlane;fontStyle=1;align=center;verticalAlign=top;childLayout=stackLayout;horizontal=1;startSize=26;horizontalStack=0;resizeParent=1;resizeParentMax=0;resizeLast=0;collapsible=1;marginBottom=0;whiteSpace=wrap;html=1;" vertex="1" parent="1">
          <mxGeometry x="1128" y="1859.0000000000002" width="160" height="34" as="geometry" />
        </mxCell>
        <mxCell id="dJ0ISXZauVjFbvS7ho5C-449" value="" style="line;strokeWidth=1;fillColor=none;align=left;verticalAlign=middle;spacingTop=-1;spacingLeft=3;spacingRight=3;rotatable=0;labelPosition=right;points=[];portConstraint=eastwest;strokeColor=inherit;" vertex="1" parent="dJ0ISXZauVjFbvS7ho5C-448">
          <mxGeometry y="26" width="160" height="8" as="geometry" />
        </mxCell>
        <mxCell id="dJ0ISXZauVjFbvS7ho5C-450" value="TicketController" style="swimlane;fontStyle=1;align=center;verticalAlign=top;childLayout=stackLayout;horizontal=1;startSize=26;horizontalStack=0;resizeParent=1;resizeParentMax=0;resizeLast=0;collapsible=1;marginBottom=0;whiteSpace=wrap;html=1;" vertex="1" parent="1">
          <mxGeometry x="1310" y="1859.0000000000002" width="160" height="34" as="geometry" />
        </mxCell>
        <mxCell id="dJ0ISXZauVjFbvS7ho5C-451" value="" style="line;strokeWidth=1;fillColor=none;align=left;verticalAlign=middle;spacingTop=-1;spacingLeft=3;spacingRight=3;rotatable=0;labelPosition=right;points=[];portConstraint=eastwest;strokeColor=inherit;" vertex="1" parent="dJ0ISXZauVjFbvS7ho5C-450">
          <mxGeometry y="26" width="160" height="8" as="geometry" />
        </mxCell>
        <mxCell id="dJ0ISXZauVjFbvS7ho5C-452" value="&lt;span style=&quot;font-size: 14px;&quot;&gt;Controller&lt;/span&gt;" style="text;strokeColor=none;fillColor=none;html=1;fontSize=24;fontStyle=1;verticalAlign=middle;align=center;" vertex="1" parent="1">
          <mxGeometry x="1124" y="1800.0000000000002" width="118" height="40" as="geometry" />
        </mxCell>
        <mxCell id="dJ0ISXZauVjFbvS7ho5C-453" value="TripController&lt;span style=&quot;color: rgba(0, 0, 0, 0); font-family: monospace; font-size: 0px; font-weight: 400; text-align: start; text-wrap-mode: nowrap;&quot;&gt;%3CmxGraphModel%3E%3Croot%3E%3CmxCell%20id%3D%220%22%2F%3E%3CmxCell%20id%3D%221%22%20parent%3D%220%22%2F%3E%3CmxCell%20id%3D%222%22%20value%3D%22BusController%22%20style%3D%22swimlane%3BfontStyle%3D1%3Balign%3Dcenter%3BverticalAlign%3Dtop%3BchildLayout%3DstackLayout%3Bhorizontal%3D1%3BstartSize%3D26%3BhorizontalStack%3D0%3BresizeParent%3D1%3BresizeParentMax%3D0%3BresizeLast%3D0%3Bcollapsible%3D1%3BmarginBottom%3D0%3BwhiteSpace%3Dwrap%3Bhtml%3D1%3B%22%20vertex%3D%221%22%20parent%3D%221%22%3E%3CmxGeometry%20x%3D%22592.4200000000001%22%20y%3D%221643.75%22%20width%3D%22160%22%20height%3D%2234%22%20as%3D%22geometry%22%2F%3E%3C%2FmxCell%3E%3CmxCell%20id%3D%223%22%20value%3D%22%22%20style%3D%22line%3BstrokeWidth%3D1%3BfillColor%3Dnone%3Balign%3Dleft%3BverticalAlign%3Dmiddle%3BspacingTop%3D-1%3BspacingLeft%3D3%3BspacingRight%3D3%3Brotatable%3D0%3BlabelPosition%3Dright%3Bpoints%3D%5B%5D%3BportConstraint%3Deastwest%3BstrokeColor%3Dinherit%3B%22%20vertex%3D%221%22%20parent%3D%222%22%3E%3CmxGeometry%20y%3D%2226%22%20width%3D%22160%22%20height%3D%228%22%20as%3D%22geometry%22%2F%3E%3C%2FmxCell%3E%3C%2Froot%3E%3C%2FmxGraphModel%3E&lt;/span&gt;" style="swimlane;fontStyle=1;align=center;verticalAlign=top;childLayout=stackLayout;horizontal=1;startSize=26;horizontalStack=0;resizeParent=1;resizeParentMax=0;resizeLast=0;collapsible=1;marginBottom=0;whiteSpace=wrap;html=1;" vertex="1" parent="1">
          <mxGeometry x="1128" y="1920" width="160" height="34" as="geometry" />
        </mxCell>
        <mxCell id="dJ0ISXZauVjFbvS7ho5C-454" value="" style="line;strokeWidth=1;fillColor=none;align=left;verticalAlign=middle;spacingTop=-1;spacingLeft=3;spacingRight=3;rotatable=0;labelPosition=right;points=[];portConstraint=eastwest;strokeColor=inherit;" vertex="1" parent="dJ0ISXZauVjFbvS7ho5C-453">
          <mxGeometry y="26" width="160" height="8" as="geometry" />
        </mxCell>
        <mxCell id="dJ0ISXZauVjFbvS7ho5C-455" value="" style="endArrow=block;html=1;rounded=0;exitX=0;exitY=0.5;exitDx=0;exitDy=0;endFill=0;" edge="1" parent="1" source="dJ0ISXZauVjFbvS7ho5C-161">
          <mxGeometry width="50" height="50" relative="1" as="geometry">
            <mxPoint x="1221.62" y="1926" as="sourcePoint" />
            <mxPoint x="1480" y="2066" as="targetPoint" />
          </mxGeometry>
        </mxCell>
        <mxCell id="dJ0ISXZauVjFbvS7ho5C-456" value="" style="endArrow=block;html=1;rounded=0;exitX=1;exitY=0.5;exitDx=0;exitDy=0;endFill=0;entryX=0;entryY=0.5;entryDx=0;entryDy=0;" edge="1" parent="1" source="dJ0ISXZauVjFbvS7ho5C-159" target="dJ0ISXZauVjFbvS7ho5C-163">
          <mxGeometry width="50" height="50" relative="1" as="geometry">
            <mxPoint x="1330" y="2076" as="sourcePoint" />
            <mxPoint x="1320" y="2070" as="targetPoint" />
          </mxGeometry>
        </mxCell>
        <mxCell id="dJ0ISXZauVjFbvS7ho5C-458" value="" style="endArrow=open;html=1;rounded=0;exitX=0;exitY=0.5;exitDx=0;exitDy=0;entryX=0.5;entryY=1;entryDx=0;entryDy=0;endFill=0;dashed=1;" edge="1" parent="1" source="dJ0ISXZauVjFbvS7ho5C-448" target="dJ0ISXZauVjFbvS7ho5C-169">
          <mxGeometry width="50" height="50" relative="1" as="geometry">
            <mxPoint x="1000" y="1790" as="sourcePoint" />
            <mxPoint x="1000" y="1946" as="targetPoint" />
            <Array as="points">
              <mxPoint x="1060" y="1876" />
              <mxPoint x="1060" y="2320" />
              <mxPoint x="1400" y="2320" />
            </Array>
          </mxGeometry>
        </mxCell>
        <mxCell id="dJ0ISXZauVjFbvS7ho5C-460" value="" style="endArrow=open;html=1;rounded=0;entryX=0.5;entryY=1;entryDx=0;entryDy=0;endFill=0;dashed=1;" edge="1" parent="1" target="dJ0ISXZauVjFbvS7ho5C-165">
          <mxGeometry width="50" height="50" relative="1" as="geometry">
            <mxPoint x="1400" y="2320" as="sourcePoint" />
            <mxPoint x="1000" y="1946" as="targetPoint" />
            <Array as="points">
              <mxPoint x="1590" y="2320" />
            </Array>
          </mxGeometry>
        </mxCell>
        <mxCell id="dJ0ISXZauVjFbvS7ho5C-462" value="" style="endArrow=open;html=1;rounded=0;exitX=0.5;exitY=1;exitDx=0;exitDy=0;entryX=0.5;entryY=0;entryDx=0;entryDy=0;endFill=0;" edge="1" parent="1">
          <mxGeometry width="50" height="50" relative="1" as="geometry">
            <mxPoint x="1800" y="1400" as="sourcePoint" />
            <mxPoint x="1800" y="1556" as="targetPoint" />
          </mxGeometry>
        </mxCell>
        <mxCell id="dJ0ISXZauVjFbvS7ho5C-463" value="" style="endArrow=open;html=1;rounded=0;exitX=0;exitY=0.5;exitDx=0;exitDy=0;entryX=0;entryY=0.75;entryDx=0;entryDy=0;endFill=0;dashed=1;" edge="1" parent="1" source="dJ0ISXZauVjFbvS7ho5C-453" target="dJ0ISXZauVjFbvS7ho5C-157">
          <mxGeometry width="50" height="50" relative="1" as="geometry">
            <mxPoint x="1010" y="2031.63" as="sourcePoint" />
            <mxPoint x="1010" y="2187.63" as="targetPoint" />
            <Array as="points">
              <mxPoint x="1090" y="1937" />
              <mxPoint x="1090" y="2130" />
            </Array>
          </mxGeometry>
        </mxCell>
        <mxCell id="dJ0ISXZauVjFbvS7ho5C-464" value="" style="endArrow=open;html=1;rounded=0;entryX=0;entryY=0.5;entryDx=0;entryDy=0;endFill=0;dashed=1;" edge="1" parent="1" target="dJ0ISXZauVjFbvS7ho5C-167">
          <mxGeometry width="50" height="50" relative="1" as="geometry">
            <mxPoint x="1090" y="2130" as="sourcePoint" />
            <mxPoint x="1010" y="2187.63" as="targetPoint" />
            <Array as="points">
              <mxPoint x="1090" y="2178" />
            </Array>
          </mxGeometry>
        </mxCell>
        <mxCell id="dJ0ISXZauVjFbvS7ho5C-465" value="" style="endArrow=open;html=1;rounded=0;entryX=0;entryY=0.5;entryDx=0;entryDy=0;endFill=0;dashed=1;" edge="1" parent="1" target="dJ0ISXZauVjFbvS7ho5C-171">
          <mxGeometry width="50" height="50" relative="1" as="geometry">
            <mxPoint x="1090" y="2180" as="sourcePoint" />
            <mxPoint x="1020" y="2197.63" as="targetPoint" />
            <Array as="points">
              <mxPoint x="1090" y="2232" />
            </Array>
          </mxGeometry>
        </mxCell>
        <mxCell id="dJ0ISXZauVjFbvS7ho5C-466" value="" style="endArrow=open;html=1;rounded=0;exitX=0.5;exitY=1;exitDx=0;exitDy=0;entryX=0.5;entryY=0;entryDx=0;entryDy=0;endFill=0;dashed=1;" edge="1" parent="1" source="dJ0ISXZauVjFbvS7ho5C-444" target="dJ0ISXZauVjFbvS7ho5C-159">
          <mxGeometry width="50" height="50" relative="1" as="geometry">
            <mxPoint x="1010" y="2031.63" as="sourcePoint" />
            <mxPoint x="1010" y="2187.63" as="targetPoint" />
          </mxGeometry>
        </mxCell>
        <mxCell id="dJ0ISXZauVjFbvS7ho5C-467" value="" style="endArrow=open;html=1;rounded=0;entryX=0.5;entryY=0;entryDx=0;entryDy=0;endFill=0;dashed=1;exitX=0.5;exitY=1;exitDx=0;exitDy=0;" edge="1" parent="1" source="dJ0ISXZauVjFbvS7ho5C-444" target="dJ0ISXZauVjFbvS7ho5C-161">
          <mxGeometry width="50" height="50" relative="1" as="geometry">
            <mxPoint x="1390" y="1950" as="sourcePoint" />
            <mxPoint x="1220" y="2059" as="targetPoint" />
          </mxGeometry>
        </mxCell>
        <mxCell id="dJ0ISXZauVjFbvS7ho5C-468" value="" style="endArrow=open;html=1;rounded=0;endFill=0;dashed=1;exitX=0.75;exitY=1;exitDx=0;exitDy=0;" edge="1" parent="1" source="dJ0ISXZauVjFbvS7ho5C-442">
          <mxGeometry width="50" height="50" relative="1" as="geometry">
            <mxPoint x="1620" y="2000" as="sourcePoint" />
            <mxPoint x="1622" y="2050" as="targetPoint" />
          </mxGeometry>
        </mxCell>
        <mxCell id="dJ0ISXZauVjFbvS7ho5C-470" value="" style="endArrow=open;html=1;rounded=0;exitX=1;exitY=0.5;exitDx=0;exitDy=0;entryX=1;entryY=0.5;entryDx=0;entryDy=0;endFill=0;dashed=1;" edge="1" parent="1" source="dJ0ISXZauVjFbvS7ho5C-446" target="dJ0ISXZauVjFbvS7ho5C-157">
          <mxGeometry width="50" height="50" relative="1" as="geometry">
            <mxPoint x="1010" y="2031.63" as="sourcePoint" />
            <mxPoint x="1010" y="2187.63" as="targetPoint" />
            <Array as="points">
              <mxPoint x="1720" y="1876" />
              <mxPoint x="1720" y="2122" />
            </Array>
          </mxGeometry>
        </mxCell>
        <mxCell id="dJ0ISXZauVjFbvS7ho5C-472" value="" style="endArrow=open;html=1;rounded=0;exitX=0.5;exitY=0;exitDx=0;exitDy=0;endFill=0;dashed=1;entryX=0.5;entryY=0;entryDx=0;entryDy=0;" edge="1" parent="1" source="dJ0ISXZauVjFbvS7ho5C-450" target="dJ0ISXZauVjFbvS7ho5C-169">
          <mxGeometry width="50" height="50" relative="1" as="geometry">
            <mxPoint x="1010" y="2031.63" as="sourcePoint" />
            <mxPoint x="1010" y="2187.63" as="targetPoint" />
            <Array as="points">
              <mxPoint x="1390" y="1800" />
              <mxPoint x="1760" y="1800" />
              <mxPoint x="1760" y="2170" />
              <mxPoint x="1400" y="2170" />
            </Array>
          </mxGeometry>
        </mxCell>
        <mxCell id="dJ0ISXZauVjFbvS7ho5C-473" value="" style="endArrow=open;html=1;rounded=0;exitX=0.5;exitY=1;exitDx=0;exitDy=0;entryX=0.5;entryY=0;entryDx=0;entryDy=0;endFill=0;" edge="1" parent="1" source="dJ0ISXZauVjFbvS7ho5C-446" target="dJ0ISXZauVjFbvS7ho5C-453">
          <mxGeometry width="50" height="50" relative="1" as="geometry">
            <mxPoint x="1000" y="1790" as="sourcePoint" />
            <mxPoint x="1000" y="1946" as="targetPoint" />
            <Array as="points">
              <mxPoint x="1580" y="1910" />
              <mxPoint x="1208" y="1910" />
            </Array>
          </mxGeometry>
        </mxCell>
        <mxCell id="dJ0ISXZauVjFbvS7ho5C-475" value="" style="endArrow=open;html=1;rounded=0;exitX=1;exitY=0.5;exitDx=0;exitDy=0;entryX=0;entryY=0.5;entryDx=0;entryDy=0;endFill=0;" edge="1" parent="1" source="dJ0ISXZauVjFbvS7ho5C-448" target="dJ0ISXZauVjFbvS7ho5C-450">
          <mxGeometry width="50" height="50" relative="1" as="geometry">
            <mxPoint x="1010" y="1800" as="sourcePoint" />
            <mxPoint x="1010" y="1956" as="targetPoint" />
          </mxGeometry>
        </mxCell>
        <mxCell id="dJ0ISXZauVjFbvS7ho5C-476" value="&lt;span style=&quot;font-size: 14px;&quot;&gt;View.ManagerView&lt;/span&gt;" style="text;strokeColor=none;fillColor=none;html=1;fontSize=24;fontStyle=1;verticalAlign=middle;align=center;" vertex="1" parent="1">
          <mxGeometry x="230" y="1790" width="110" height="40" as="geometry" />
        </mxCell>
        <mxCell id="dJ0ISXZauVjFbvS7ho5C-477" value="" style="endArrow=open;html=1;rounded=0;exitX=0.5;exitY=1;exitDx=0;exitDy=0;endFill=0;entryX=0.5;entryY=0;entryDx=0;entryDy=0;" edge="1" parent="1" source="dJ0ISXZauVjFbvS7ho5C-244" target="dJ0ISXZauVjFbvS7ho5C-421">
          <mxGeometry width="50" height="50" relative="1" as="geometry">
            <mxPoint x="632" y="1604.3" as="sourcePoint" />
            <mxPoint x="440" y="1604.3" as="targetPoint" />
          </mxGeometry>
        </mxCell>
        <mxCell id="dJ0ISXZauVjFbvS7ho5C-478" value="" style="endArrow=open;html=1;rounded=0;endFill=0;exitX=0.45;exitY=0.058;exitDx=0;exitDy=0;exitPerimeter=0;entryX=0.5;entryY=1;entryDx=0;entryDy=0;" edge="1" parent="1" source="dJ0ISXZauVjFbvS7ho5C-246" target="dJ0ISXZauVjFbvS7ho5C-248">
          <mxGeometry width="50" height="50" relative="1" as="geometry">
            <mxPoint x="570" y="1580" as="sourcePoint" />
            <mxPoint x="680" y="1590" as="targetPoint" />
            <Array as="points">
              <mxPoint x="301" y="1690" />
              <mxPoint x="492" y="1690" />
            </Array>
          </mxGeometry>
        </mxCell>
        <mxCell id="dJ0ISXZauVjFbvS7ho5C-479" value="" style="endArrow=open;html=1;rounded=0;exitX=1;exitY=0.5;exitDx=0;exitDy=0;endFill=0;entryX=0;entryY=0.5;entryDx=0;entryDy=0;" edge="1" parent="1" source="dJ0ISXZauVjFbvS7ho5C-338" target="dJ0ISXZauVjFbvS7ho5C-340">
          <mxGeometry width="50" height="50" relative="1" as="geometry">
            <mxPoint x="682" y="1688" as="sourcePoint" />
            <mxPoint x="682" y="1715" as="targetPoint" />
          </mxGeometry>
        </mxCell>
        <mxCell id="dJ0ISXZauVjFbvS7ho5C-480" value="" style="endArrow=open;html=1;rounded=0;exitX=0.5;exitY=0;exitDx=0;exitDy=0;endFill=0;entryX=0.5;entryY=1;entryDx=0;entryDy=0;" edge="1" parent="1" source="dJ0ISXZauVjFbvS7ho5C-336" target="dJ0ISXZauVjFbvS7ho5C-423">
          <mxGeometry width="50" height="50" relative="1" as="geometry">
            <mxPoint x="692" y="1698" as="sourcePoint" />
            <mxPoint x="692" y="1725" as="targetPoint" />
            <Array as="points">
              <mxPoint x="907" y="1690" />
              <mxPoint x="1270" y="1690" />
            </Array>
          </mxGeometry>
        </mxCell>
        <mxCell id="dJ0ISXZauVjFbvS7ho5C-481" value="" style="endArrow=open;html=1;rounded=0;endFill=0;exitX=0;exitY=0.5;exitDx=0;exitDy=0;entryX=1;entryY=0.5;entryDx=0;entryDy=0;" edge="1" parent="1" source="dJ0ISXZauVjFbvS7ho5C-392" target="dJ0ISXZauVjFbvS7ho5C-425">
          <mxGeometry width="50" height="50" relative="1" as="geometry">
            <mxPoint x="940" y="1890" as="sourcePoint" />
            <mxPoint x="930" y="1940" as="targetPoint" />
          </mxGeometry>
        </mxCell>
        <mxCell id="dJ0ISXZauVjFbvS7ho5C-482" value="" style="endArrow=open;html=1;rounded=0;endFill=0;exitX=1;exitY=0.5;exitDx=0;exitDy=0;entryX=0;entryY=0.5;entryDx=0;entryDy=0;" edge="1" parent="1" source="dJ0ISXZauVjFbvS7ho5C-394" target="dJ0ISXZauVjFbvS7ho5C-396">
          <mxGeometry width="50" height="50" relative="1" as="geometry">
            <mxPoint x="780" y="2105" as="sourcePoint" />
            <mxPoint x="760" y="2105" as="targetPoint" />
          </mxGeometry>
        </mxCell>
        <mxCell id="dJ0ISXZauVjFbvS7ho5C-484" value="" style="shape=folder;fontStyle=1;spacingTop=0;tabWidth=148;tabHeight=30;tabPosition=left;html=1;rounded=0;shadow=0;comic=0;labelBackgroundColor=none;strokeColor=#000000;strokeWidth=1;fillColor=#ffffff;fontFamily=Verdana;fontSize=10;fontColor=#000000;align=left;verticalAlign=middle;" vertex="1" parent="1">
          <mxGeometry x="2430" y="1880" width="580" height="280" as="geometry" />
        </mxCell>
        <mxCell id="dJ0ISXZauVjFbvS7ho5C-485" value="&lt;span style=&quot;font-size: 14px;&quot;&gt;Model&lt;/span&gt;" style="text;strokeColor=none;fillColor=none;html=1;fontSize=24;fontStyle=1;verticalAlign=middle;align=center;" vertex="1" parent="1">
          <mxGeometry x="2444" y="1870" width="118" height="40" as="geometry" />
        </mxCell>
        <mxCell id="dJ0ISXZauVjFbvS7ho5C-486" value="Bus" style="swimlane;fontStyle=1;align=center;verticalAlign=top;childLayout=stackLayout;horizontal=1;startSize=26;horizontalStack=0;resizeParent=1;resizeParentMax=0;resizeLast=0;collapsible=1;marginBottom=0;whiteSpace=wrap;html=1;" vertex="1" parent="1">
          <mxGeometry x="2830" y="2043.68" width="160" height="34" as="geometry" />
        </mxCell>
        <mxCell id="dJ0ISXZauVjFbvS7ho5C-487" value="" style="line;strokeWidth=1;fillColor=none;align=left;verticalAlign=middle;spacingTop=-1;spacingLeft=3;spacingRight=3;rotatable=0;labelPosition=right;points=[];portConstraint=eastwest;strokeColor=inherit;" vertex="1" parent="dJ0ISXZauVjFbvS7ho5C-486">
          <mxGeometry y="26" width="160" height="8" as="geometry" />
        </mxCell>
        <mxCell id="dJ0ISXZauVjFbvS7ho5C-488" value="Customer" style="swimlane;fontStyle=1;align=center;verticalAlign=top;childLayout=stackLayout;horizontal=1;startSize=26;horizontalStack=0;resizeParent=1;resizeParentMax=0;resizeLast=0;collapsible=1;marginBottom=0;whiteSpace=wrap;html=1;" vertex="1" parent="1">
          <mxGeometry x="2450" y="1929" width="160" height="34" as="geometry" />
        </mxCell>
        <mxCell id="dJ0ISXZauVjFbvS7ho5C-489" value="" style="line;strokeWidth=1;fillColor=none;align=left;verticalAlign=middle;spacingTop=-1;spacingLeft=3;spacingRight=3;rotatable=0;labelPosition=right;points=[];portConstraint=eastwest;strokeColor=inherit;" vertex="1" parent="dJ0ISXZauVjFbvS7ho5C-488">
          <mxGeometry y="26" width="160" height="8" as="geometry" />
        </mxCell>
        <mxCell id="dJ0ISXZauVjFbvS7ho5C-490" value="Manager" style="swimlane;fontStyle=1;align=center;verticalAlign=top;childLayout=stackLayout;horizontal=1;startSize=26;horizontalStack=0;resizeParent=1;resizeParentMax=0;resizeLast=0;collapsible=1;marginBottom=0;whiteSpace=wrap;html=1;" vertex="1" parent="1">
          <mxGeometry x="2830" y="1929" width="160" height="34" as="geometry" />
        </mxCell>
        <mxCell id="dJ0ISXZauVjFbvS7ho5C-491" value="" style="line;strokeWidth=1;fillColor=none;align=left;verticalAlign=middle;spacingTop=-1;spacingLeft=3;spacingRight=3;rotatable=0;labelPosition=right;points=[];portConstraint=eastwest;strokeColor=inherit;" vertex="1" parent="dJ0ISXZauVjFbvS7ho5C-490">
          <mxGeometry y="26" width="160" height="8" as="geometry" />
        </mxCell>
        <mxCell id="dJ0ISXZauVjFbvS7ho5C-492" value="Person" style="swimlane;fontStyle=1;align=center;verticalAlign=top;childLayout=stackLayout;horizontal=1;startSize=26;horizontalStack=0;resizeParent=1;resizeParentMax=0;resizeLast=0;collapsible=1;marginBottom=0;whiteSpace=wrap;html=1;" vertex="1" parent="1">
          <mxGeometry x="2640" y="1929" width="160" height="34" as="geometry" />
        </mxCell>
        <mxCell id="dJ0ISXZauVjFbvS7ho5C-493" value="" style="line;strokeWidth=1;fillColor=none;align=left;verticalAlign=middle;spacingTop=-1;spacingLeft=3;spacingRight=3;rotatable=0;labelPosition=right;points=[];portConstraint=eastwest;strokeColor=inherit;" vertex="1" parent="dJ0ISXZauVjFbvS7ho5C-492">
          <mxGeometry y="26" width="160" height="8" as="geometry" />
        </mxCell>
        <mxCell id="dJ0ISXZauVjFbvS7ho5C-494" value="Payment" style="swimlane;fontStyle=1;align=center;verticalAlign=top;childLayout=stackLayout;horizontal=1;startSize=26;horizontalStack=0;resizeParent=1;resizeParentMax=0;resizeLast=0;collapsible=1;marginBottom=0;whiteSpace=wrap;html=1;" vertex="1" parent="1">
          <mxGeometry x="2450" y="1984.68" width="160" height="34" as="geometry" />
        </mxCell>
        <mxCell id="dJ0ISXZauVjFbvS7ho5C-495" value="" style="line;strokeWidth=1;fillColor=none;align=left;verticalAlign=middle;spacingTop=-1;spacingLeft=3;spacingRight=3;rotatable=0;labelPosition=right;points=[];portConstraint=eastwest;strokeColor=inherit;" vertex="1" parent="dJ0ISXZauVjFbvS7ho5C-494">
          <mxGeometry y="26" width="160" height="8" as="geometry" />
        </mxCell>
        <mxCell id="dJ0ISXZauVjFbvS7ho5C-496" value="Route" style="swimlane;fontStyle=1;align=center;verticalAlign=top;childLayout=stackLayout;horizontal=1;startSize=26;horizontalStack=0;resizeParent=1;resizeParentMax=0;resizeLast=0;collapsible=1;marginBottom=0;whiteSpace=wrap;html=1;" vertex="1" parent="1">
          <mxGeometry x="2640" y="2104.63" width="160" height="34" as="geometry" />
        </mxCell>
        <mxCell id="dJ0ISXZauVjFbvS7ho5C-497" value="" style="line;strokeWidth=1;fillColor=none;align=left;verticalAlign=middle;spacingTop=-1;spacingLeft=3;spacingRight=3;rotatable=0;labelPosition=right;points=[];portConstraint=eastwest;strokeColor=inherit;" vertex="1" parent="dJ0ISXZauVjFbvS7ho5C-496">
          <mxGeometry y="26" width="160" height="8" as="geometry" />
        </mxCell>
        <mxCell id="dJ0ISXZauVjFbvS7ho5C-498" value="Ticket" style="swimlane;fontStyle=1;align=center;verticalAlign=top;childLayout=stackLayout;horizontal=1;startSize=26;horizontalStack=0;resizeParent=1;resizeParentMax=0;resizeLast=0;collapsible=1;marginBottom=0;whiteSpace=wrap;html=1;" vertex="1" parent="1">
          <mxGeometry x="2640" y="1984.68" width="160" height="34" as="geometry" />
        </mxCell>
        <mxCell id="dJ0ISXZauVjFbvS7ho5C-499" value="" style="line;strokeWidth=1;fillColor=none;align=left;verticalAlign=middle;spacingTop=-1;spacingLeft=3;spacingRight=3;rotatable=0;labelPosition=right;points=[];portConstraint=eastwest;strokeColor=inherit;" vertex="1" parent="dJ0ISXZauVjFbvS7ho5C-498">
          <mxGeometry y="26" width="160" height="8" as="geometry" />
        </mxCell>
        <mxCell id="dJ0ISXZauVjFbvS7ho5C-500" value="Trip" style="swimlane;fontStyle=1;align=center;verticalAlign=top;childLayout=stackLayout;horizontal=1;startSize=26;horizontalStack=0;resizeParent=1;resizeParentMax=0;resizeLast=0;collapsible=1;marginBottom=0;whiteSpace=wrap;html=1;" vertex="1" parent="1">
          <mxGeometry x="2640" y="2043.68" width="160" height="34" as="geometry" />
        </mxCell>
        <mxCell id="dJ0ISXZauVjFbvS7ho5C-501" value="" style="line;strokeWidth=1;fillColor=none;align=left;verticalAlign=middle;spacingTop=-1;spacingLeft=3;spacingRight=3;rotatable=0;labelPosition=right;points=[];portConstraint=eastwest;strokeColor=inherit;" vertex="1" parent="dJ0ISXZauVjFbvS7ho5C-500">
          <mxGeometry y="26" width="160" height="8" as="geometry" />
        </mxCell>
        <mxCell id="dJ0ISXZauVjFbvS7ho5C-502" value="" style="endArrow=block;html=1;rounded=0;exitX=0;exitY=0.5;exitDx=0;exitDy=0;endFill=0;" edge="1" parent="1" source="dJ0ISXZauVjFbvS7ho5C-490">
          <mxGeometry width="50" height="50" relative="1" as="geometry">
            <mxPoint x="2541.62" y="1806" as="sourcePoint" />
            <mxPoint x="2800" y="1946" as="targetPoint" />
          </mxGeometry>
        </mxCell>
        <mxCell id="dJ0ISXZauVjFbvS7ho5C-503" value="" style="endArrow=block;html=1;rounded=0;exitX=1;exitY=0.5;exitDx=0;exitDy=0;endFill=0;entryX=0;entryY=0.5;entryDx=0;entryDy=0;" edge="1" parent="1" source="dJ0ISXZauVjFbvS7ho5C-488" target="dJ0ISXZauVjFbvS7ho5C-492">
          <mxGeometry width="50" height="50" relative="1" as="geometry">
            <mxPoint x="2650" y="1956" as="sourcePoint" />
            <mxPoint x="2640" y="1950" as="targetPoint" />
          </mxGeometry>
        </mxCell>
        <mxCell id="dJ0ISXZauVjFbvS7ho5C-505" value="" style="endArrow=open;html=1;rounded=0;exitX=0.5;exitY=1;exitDx=0;exitDy=0;entryX=0.5;entryY=0;entryDx=0;entryDy=0;endFill=0;" edge="1" parent="1" source="dJ0ISXZauVjFbvS7ho5C-500" target="dJ0ISXZauVjFbvS7ho5C-496">
          <mxGeometry width="50" height="50" relative="1" as="geometry">
            <mxPoint x="2340" y="1943.63" as="sourcePoint" />
            <mxPoint x="2340" y="2099.63" as="targetPoint" />
          </mxGeometry>
        </mxCell>
        <mxCell id="dJ0ISXZauVjFbvS7ho5C-506" value="" style="endArrow=open;html=1;rounded=0;exitX=1;exitY=0.5;exitDx=0;exitDy=0;entryX=0;entryY=0.5;entryDx=0;entryDy=0;endFill=0;" edge="1" parent="1" source="dJ0ISXZauVjFbvS7ho5C-500" target="dJ0ISXZauVjFbvS7ho5C-486">
          <mxGeometry width="50" height="50" relative="1" as="geometry">
            <mxPoint x="2350" y="1953.63" as="sourcePoint" />
            <mxPoint x="2350" y="2109.63" as="targetPoint" />
          </mxGeometry>
        </mxCell>
        <mxCell id="dJ0ISXZauVjFbvS7ho5C-507" value="" style="endArrow=open;html=1;rounded=0;exitX=1;exitY=0.5;exitDx=0;exitDy=0;entryX=0;entryY=0.5;entryDx=0;entryDy=0;endFill=0;" edge="1" parent="1" source="dJ0ISXZauVjFbvS7ho5C-494" target="dJ0ISXZauVjFbvS7ho5C-498">
          <mxGeometry width="50" height="50" relative="1" as="geometry">
            <mxPoint x="2360" y="1963.63" as="sourcePoint" />
            <mxPoint x="2360" y="2119.63" as="targetPoint" />
          </mxGeometry>
        </mxCell>
        <mxCell id="dJ0ISXZauVjFbvS7ho5C-508" value="" style="endArrow=open;html=1;rounded=0;exitX=0.5;exitY=0;exitDx=0;exitDy=0;entryX=0.5;entryY=1;entryDx=0;entryDy=0;endFill=0;" edge="1" parent="1" source="dJ0ISXZauVjFbvS7ho5C-494" target="dJ0ISXZauVjFbvS7ho5C-488">
          <mxGeometry width="50" height="50" relative="1" as="geometry">
            <mxPoint x="2620" y="2012" as="sourcePoint" />
            <mxPoint x="2650" y="2012" as="targetPoint" />
          </mxGeometry>
        </mxCell>
        <mxCell id="dJ0ISXZauVjFbvS7ho5C-509" value="" style="endArrow=open;html=1;rounded=0;exitX=0.5;exitY=1;exitDx=0;exitDy=0;entryX=0.5;entryY=0;entryDx=0;entryDy=0;endFill=0;" edge="1" parent="1" source="dJ0ISXZauVjFbvS7ho5C-498" target="dJ0ISXZauVjFbvS7ho5C-500">
          <mxGeometry width="50" height="50" relative="1" as="geometry">
            <mxPoint x="2630" y="2022" as="sourcePoint" />
            <mxPoint x="2660" y="2022" as="targetPoint" />
            <Array as="points">
              <mxPoint x="2720" y="2030" />
            </Array>
          </mxGeometry>
        </mxCell>
        <mxCell id="dJ0ISXZauVjFbvS7ho5C-510" value="" style="endArrow=none;html=1;rounded=0;exitX=0.5;exitY=1;exitDx=0;exitDy=0;endFill=0;startFill=0;" edge="1" parent="1">
          <mxGeometry width="50" height="50" relative="1" as="geometry">
            <mxPoint x="2720" y="1985.5" as="sourcePoint" />
            <mxPoint x="2530" y="1975" as="targetPoint" />
            <Array as="points">
              <mxPoint x="2720" y="1974.5" />
              <mxPoint x="2530" y="1974.5" />
            </Array>
          </mxGeometry>
        </mxCell>
        <mxCell id="dJ0ISXZauVjFbvS7ho5C-512" value="" style="shape=folder;fontStyle=1;spacingTop=0;tabWidth=148;tabHeight=30;tabPosition=left;html=1;rounded=0;shadow=0;comic=0;labelBackgroundColor=none;strokeColor=#000000;strokeWidth=1;fillColor=#ffffff;fontFamily=Verdana;fontSize=10;fontColor=#000000;align=left;verticalAlign=middle;" vertex="1" parent="1">
          <mxGeometry x="2140" y="1410" width="560" height="165.25" as="geometry" />
        </mxCell>
        <mxCell id="dJ0ISXZauVjFbvS7ho5C-513" value="ManagerController" style="swimlane;fontStyle=1;align=center;verticalAlign=top;childLayout=stackLayout;horizontal=1;startSize=26;horizontalStack=0;resizeParent=1;resizeParentMax=0;resizeLast=0;collapsible=1;marginBottom=0;whiteSpace=wrap;html=1;" vertex="1" parent="1">
          <mxGeometry x="2520" y="1460.2500000000002" width="160" height="34" as="geometry" />
        </mxCell>
        <mxCell id="dJ0ISXZauVjFbvS7ho5C-514" value="" style="line;strokeWidth=1;fillColor=none;align=left;verticalAlign=middle;spacingTop=-1;spacingLeft=3;spacingRight=3;rotatable=0;labelPosition=right;points=[];portConstraint=eastwest;strokeColor=inherit;" vertex="1" parent="dJ0ISXZauVjFbvS7ho5C-513">
          <mxGeometry y="26" width="160" height="8" as="geometry" />
        </mxCell>
        <mxCell id="dJ0ISXZauVjFbvS7ho5C-515" value="AuthController" style="swimlane;fontStyle=1;align=center;verticalAlign=top;childLayout=stackLayout;horizontal=1;startSize=26;horizontalStack=0;resizeParent=1;resizeParentMax=0;resizeLast=0;collapsible=1;marginBottom=0;whiteSpace=wrap;html=1;" vertex="1" parent="1">
          <mxGeometry x="2160" y="1460.2500000000002" width="160" height="34" as="geometry" />
        </mxCell>
        <mxCell id="dJ0ISXZauVjFbvS7ho5C-516" value="" style="line;strokeWidth=1;fillColor=none;align=left;verticalAlign=middle;spacingTop=-1;spacingLeft=3;spacingRight=3;rotatable=0;labelPosition=right;points=[];portConstraint=eastwest;strokeColor=inherit;" vertex="1" parent="dJ0ISXZauVjFbvS7ho5C-515">
          <mxGeometry y="26" width="160" height="8" as="geometry" />
        </mxCell>
        <mxCell id="dJ0ISXZauVjFbvS7ho5C-517" value="BusController" style="swimlane;fontStyle=1;align=center;verticalAlign=top;childLayout=stackLayout;horizontal=1;startSize=26;horizontalStack=0;resizeParent=1;resizeParentMax=0;resizeLast=0;collapsible=1;marginBottom=0;whiteSpace=wrap;html=1;" vertex="1" parent="1">
          <mxGeometry x="2160" y="1520.0000000000002" width="160" height="34" as="geometry" />
        </mxCell>
        <mxCell id="dJ0ISXZauVjFbvS7ho5C-518" value="" style="line;strokeWidth=1;fillColor=none;align=left;verticalAlign=middle;spacingTop=-1;spacingLeft=3;spacingRight=3;rotatable=0;labelPosition=right;points=[];portConstraint=eastwest;strokeColor=inherit;" vertex="1" parent="dJ0ISXZauVjFbvS7ho5C-517">
          <mxGeometry y="26" width="160" height="8" as="geometry" />
        </mxCell>
        <mxCell id="dJ0ISXZauVjFbvS7ho5C-519" value="PaymentController" style="swimlane;fontStyle=1;align=center;verticalAlign=top;childLayout=stackLayout;horizontal=1;startSize=26;horizontalStack=0;resizeParent=1;resizeParentMax=0;resizeLast=0;collapsible=1;marginBottom=0;whiteSpace=wrap;html=1;" vertex="1" parent="1">
          <mxGeometry x="2340" y="1519.2500000000002" width="160" height="34" as="geometry" />
        </mxCell>
        <mxCell id="dJ0ISXZauVjFbvS7ho5C-520" value="" style="line;strokeWidth=1;fillColor=none;align=left;verticalAlign=middle;spacingTop=-1;spacingLeft=3;spacingRight=3;rotatable=0;labelPosition=right;points=[];portConstraint=eastwest;strokeColor=inherit;" vertex="1" parent="dJ0ISXZauVjFbvS7ho5C-519">
          <mxGeometry y="26" width="160" height="8" as="geometry" />
        </mxCell>
        <mxCell id="dJ0ISXZauVjFbvS7ho5C-521" value="TicketController" style="swimlane;fontStyle=1;align=center;verticalAlign=top;childLayout=stackLayout;horizontal=1;startSize=26;horizontalStack=0;resizeParent=1;resizeParentMax=0;resizeLast=0;collapsible=1;marginBottom=0;whiteSpace=wrap;html=1;" vertex="1" parent="1">
          <mxGeometry x="2520" y="1519.2500000000002" width="160" height="34" as="geometry" />
        </mxCell>
        <mxCell id="dJ0ISXZauVjFbvS7ho5C-522" value="" style="line;strokeWidth=1;fillColor=none;align=left;verticalAlign=middle;spacingTop=-1;spacingLeft=3;spacingRight=3;rotatable=0;labelPosition=right;points=[];portConstraint=eastwest;strokeColor=inherit;" vertex="1" parent="dJ0ISXZauVjFbvS7ho5C-521">
          <mxGeometry y="26" width="160" height="8" as="geometry" />
        </mxCell>
        <mxCell id="dJ0ISXZauVjFbvS7ho5C-523" value="&lt;span style=&quot;font-size: 14px;&quot;&gt;Controller&lt;/span&gt;" style="text;strokeColor=none;fillColor=none;html=1;fontSize=24;fontStyle=1;verticalAlign=middle;align=center;" vertex="1" parent="1">
          <mxGeometry x="2154" y="1400.0000000000002" width="118" height="40" as="geometry" />
        </mxCell>
        <mxCell id="dJ0ISXZauVjFbvS7ho5C-524" value="TripController&lt;span style=&quot;color: rgba(0, 0, 0, 0); font-family: monospace; font-size: 0px; font-weight: 400; text-align: start; text-wrap-mode: nowrap;&quot;&gt;%3CmxGraphModel%3E%3Croot%3E%3CmxCell%20id%3D%220%22%2F%3E%3CmxCell%20id%3D%221%22%20parent%3D%220%22%2F%3E%3CmxCell%20id%3D%222%22%20value%3D%22BusController%22%20style%3D%22swimlane%3BfontStyle%3D1%3Balign%3Dcenter%3BverticalAlign%3Dtop%3BchildLayout%3DstackLayout%3Bhorizontal%3D1%3BstartSize%3D26%3BhorizontalStack%3D0%3BresizeParent%3D1%3BresizeParentMax%3D0%3BresizeLast%3D0%3Bcollapsible%3D1%3BmarginBottom%3D0%3BwhiteSpace%3Dwrap%3Bhtml%3D1%3B%22%20vertex%3D%221%22%20parent%3D%221%22%3E%3CmxGeometry%20x%3D%22592.4200000000001%22%20y%3D%221643.75%22%20width%3D%22160%22%20height%3D%2234%22%20as%3D%22geometry%22%2F%3E%3C%2FmxCell%3E%3CmxCell%20id%3D%223%22%20value%3D%22%22%20style%3D%22line%3BstrokeWidth%3D1%3BfillColor%3Dnone%3Balign%3Dleft%3BverticalAlign%3Dmiddle%3BspacingTop%3D-1%3BspacingLeft%3D3%3BspacingRight%3D3%3Brotatable%3D0%3BlabelPosition%3Dright%3Bpoints%3D%5B%5D%3BportConstraint%3Deastwest%3BstrokeColor%3Dinherit%3B%22%20vertex%3D%221%22%20parent%3D%222%22%3E%3CmxGeometry%20y%3D%2226%22%20width%3D%22160%22%20height%3D%228%22%20as%3D%22geometry%22%2F%3E%3C%2FmxCell%3E%3C%2Froot%3E%3C%2FmxGraphModel%3E&lt;/span&gt;" style="swimlane;fontStyle=1;align=center;verticalAlign=top;childLayout=stackLayout;horizontal=1;startSize=26;horizontalStack=0;resizeParent=1;resizeParentMax=0;resizeLast=0;collapsible=1;marginBottom=0;whiteSpace=wrap;html=1;" vertex="1" parent="1">
          <mxGeometry x="2340" y="1460.25" width="160" height="34" as="geometry" />
        </mxCell>
        <mxCell id="dJ0ISXZauVjFbvS7ho5C-525" value="" style="line;strokeWidth=1;fillColor=none;align=left;verticalAlign=middle;spacingTop=-1;spacingLeft=3;spacingRight=3;rotatable=0;labelPosition=right;points=[];portConstraint=eastwest;strokeColor=inherit;" vertex="1" parent="dJ0ISXZauVjFbvS7ho5C-524">
          <mxGeometry y="26" width="160" height="8" as="geometry" />
        </mxCell>
        <mxCell id="dJ0ISXZauVjFbvS7ho5C-528" value="" style="endArrow=open;html=1;rounded=0;exitX=0;exitY=0.5;exitDx=0;exitDy=0;entryX=0;entryY=0.5;entryDx=0;entryDy=0;endFill=0;dashed=1;" edge="1" parent="1" source="dJ0ISXZauVjFbvS7ho5C-515" target="dJ0ISXZauVjFbvS7ho5C-183">
          <mxGeometry width="50" height="50" relative="1" as="geometry">
            <mxPoint x="2060" y="1484.75" as="sourcePoint" />
            <mxPoint x="2060" y="1640.75" as="targetPoint" />
            <Array as="points">
              <mxPoint x="2110" y="1477" />
              <mxPoint x="2110" y="1722" />
            </Array>
          </mxGeometry>
        </mxCell>
        <mxCell id="dJ0ISXZauVjFbvS7ho5C-529" value="" style="endArrow=open;html=1;rounded=0;exitX=0.5;exitY=1;exitDx=0;exitDy=0;entryX=0.5;entryY=0;entryDx=0;entryDy=0;endFill=0;dashed=1;" edge="1" parent="1" source="dJ0ISXZauVjFbvS7ho5C-517" target="dJ0ISXZauVjFbvS7ho5C-177">
          <mxGeometry width="50" height="50" relative="1" as="geometry">
            <mxPoint x="2060" y="1484.75" as="sourcePoint" />
            <mxPoint x="2060" y="1640.75" as="targetPoint" />
          </mxGeometry>
        </mxCell>
        <mxCell id="dJ0ISXZauVjFbvS7ho5C-530" value="" style="endArrow=open;html=1;rounded=0;exitX=0.5;exitY=1;exitDx=0;exitDy=0;entryX=0.5;entryY=0;entryDx=0;entryDy=0;endFill=0;dashed=1;" edge="1" parent="1" source="dJ0ISXZauVjFbvS7ho5C-519" target="dJ0ISXZauVjFbvS7ho5C-179">
          <mxGeometry width="50" height="50" relative="1" as="geometry">
            <mxPoint x="2250" y="1564" as="sourcePoint" />
            <mxPoint x="2250" y="1661" as="targetPoint" />
          </mxGeometry>
        </mxCell>
        <mxCell id="dJ0ISXZauVjFbvS7ho5C-531" value="" style="endArrow=open;html=1;rounded=0;exitX=0.5;exitY=1;exitDx=0;exitDy=0;entryX=0.5;entryY=0;entryDx=0;entryDy=0;endFill=0;dashed=1;" edge="1" parent="1" source="dJ0ISXZauVjFbvS7ho5C-521" target="dJ0ISXZauVjFbvS7ho5C-181">
          <mxGeometry width="50" height="50" relative="1" as="geometry">
            <mxPoint x="2430" y="1563" as="sourcePoint" />
            <mxPoint x="2430" y="1661" as="targetPoint" />
          </mxGeometry>
        </mxCell>
      </root>
    </mxGraphModel>
  </diagram>
</mxfile>
